<?xml version="1.0" encoding="UTF-8"?>
<svg id="Layer_1" data-name="Layer 1" xmlns="http://www.w3.org/2000/svg" viewBox="460 220 1840 1640">
  <defs>
    <style>
      .cls-1 {
        fill: #8553cc;
      }

      .cls-2 {
        fill: #fff;
      }

      .cls-3 {
        stroke-width: .75px;
      }

      .cls-3, .cls-4 {
        fill: none;
        stroke: #000;
        stroke-miterlimit: 10;
      }

      .cls-4 {
        stroke-width: 2px;
      }

      .cls-5 {
        fill: #ff666a;
      }
    </style>
  </defs>
  <g id="Layer_6" data-name="Layer 6">
    <g>
      <g>
        <polygon class="cls-2" points="1411.55 1147.24 1411.55 1148.49 1402.82 1148.49 1402.92 1140.49 1411.55 1140.49 1411.55 1147.24"/>
        <path class="cls-2" d="M1358.13,1148.51h-22.45v-41.23h7.29v-8.15s8.32,2.08,8.49,8.06c0-.87.22-8.14,7.56-8.06v8.35h52.53v12.87l-8.47-.02v.24l-.1,7.76h-7.85s-7.12-.03-7.12-.03h-7.13s-7.14-.03-7.14-.03h-7.13s-8.31-.03-8.31-.03l-.17,20.25v.02Z"/>
        <path class="cls-2" d="M1514.62,1477.52l-.31,44,20.03.3,6.07,40.09-80.7,12.92.71,4.77-84.94,14.67-27.66,4.67-95.23,16.08-1.56.26-.94-5.79,9.08-1.76c-2.86-9.01-10.49-7.94-10.49-7.94,6.2-1.12,7.66-10.81,7.66-10.81l-9.89,1.35-.87-5.13,3.63-.59,87.28-14.23,28.9-4.72,25.65-4.18,30.57-4.98,37.95-6.19,2.18-30.53h27.45l.13-42.15.09-28.94.18-59.14v-4.4s.29-89.05.29-89.05l.08-25.57.12-38.79.09-30.03.29-94.23h-131.44v-8.35c-7.34-.08-7.56,7.19-7.56,8.06-.17-5.98-8.49-8.06-8.49-8.06v8.15h-7.29v-11.66h7.16s.16-6.48-6.75-7.11c.31,0,6.66-.09,6.75-7.07h-7.16l.19-10,10.86.16v5.54l17.36.19,128.16,1.42,3.74.04,13.52.15,8.25.09-1.01,91.65-.38,54.13-.08,11.76-.59,85.51-1.08,155.44Z"/>
        <path class="cls-2" d="M883.03,1670.71l-15.88-106.73-.23-1.54-11.35-76.32-1.1-7.43-10.39-69.8-4.24-28.53-5.64-37.92-8.65-58.15-.03-.21,2.59-.42-1.44-10.16s8.56,1.85,10.01,8.41c-.28-1.54-1.25-9.09,6.92-10.91l2.09,10.06,3.69-.48,11.73,72.63,4.39,27.15,7.15,44.22,4.38,27.14,7.08,43.85,10.27,63.62,13.11,81.13,45.18-7.37,59.05-9.62,48.16-7.86,94.22-15.36,91.48-14.91.87,5.13,9.89-1.35s-1.46,9.69-7.66,10.81c0,0,7.63-1.07,10.49,7.94l-9.08,1.76.94,5.79-99.62,16.82-33.71,5.69-76.55,12.62-70.12,11.56-24.92,4.11-11.82,1.95v6.78c-6.17.47-7.57-4.42-7.77-5.29.89,5.98-6.97,6.65-6.97,6.65l-1.01-5.93-3.52.41-31.41,3.97-.58-3.91Z"/>
        <polygon class="cls-2" points="874.39 1235.65 874.15 1213.74 895.5 1213.74 895.5 1257.83 874.35 1257.83 874.35 1235.65 874.39 1235.65"/>
        <polygon class="cls-2" points="874.15 1213.74 874.39 1235.65 874.35 1235.65 865.58 1235.65 865.34 1213.74 870.22 1213.74 874.15 1213.74"/>
        <polygon class="cls-2" points="865.34 1213.74 865.58 1235.65 856.95 1235.65 856.95 1235.4 856.71 1213.74 865.34 1213.74"/>
        <polygon class="cls-2" points="856.95 1235.4 856.95 1235.65 848.72 1235.65 848.72 1235.4 848.48 1213.74 856.71 1213.74 856.95 1235.4"/>
        <polygon class="cls-2" points="840.82 1213.74 841.06 1235.65 833.38 1235.65 833.38 1213.74 840.82 1213.74"/>
        <polygon class="cls-2" points="848.72 1235.4 848.72 1235.65 841.06 1235.65 840.82 1213.74 848.48 1213.74 848.72 1235.4"/>
        <path class="cls-2" d="M851.63,1280.19l-2.25.39-3.69.48-2.09-10.06c-8.17,1.82-7.2,9.37-6.92,10.91-1.45-6.56-10.01-8.41-10.01-8.41l1.44,10.16-2.59.42-57.97,9.28.32-58.94h-9.33s.2-35.15.2-35.15h30.08l.03-10.18,3.13.08-.11,10.1c7.47-.18,10.05-7.1,10.64-9.11.02-.09.16-.06.16.03.5,8.91,9.54,9.47,9.54,9.47l.18-9.74h5.41v.8l.14,23.02h15.44v21.91h40.97v22.18h21.15v14.84l-18.44,3.16-6.17,1.06-6.55,1.12-6.46,1.11-6.25,1.07Z"/>
        <polygon class="cls-2" points="614.85 995.47 637.11 1045.26 614.85 1095.82 614.85 995.47"/>
        <polygon class="cls-2" points="659.14 995.21 659.14 995.22 637.11 1045.26 614.85 995.47 659.14 995.21"/>
        <polygon class="cls-2" points="659.44 1046.59 659.72 1095.82 637.11 1045.26 659.14 995.22 659.44 1046.59"/>
        <polygon class="cls-2" points="637.11 1045.26 659.72 1095.82 614.85 1095.82 637.11 1045.26"/>
        <path class="cls-2" d="M774.88,1098.4h13.67s-1.9,7.05-11.25,7.47c0,0,11.12,1.35,11.25,8h-13.67v2.44l-63.11-.2-46.58-.15-50.84-.16v17.04h-17.04v-138.87h-18.74v-17.38l27.32.08,68.74.19,66.06.18,35.05.1h11.56s-1.99,9.45-9.57,9.57c0,0,9.57,1.06,9.57,7.83h-11.56l-59.97.35-56.63.32-44.29.26v100.35h160.03v2.58Z"/>
        <polygon class="cls-2" points="775.74 972.07 775.74 977.14 740.69 977.04 740.69 976.59 740.69 972.07 775.74 972.07"/>
        <path class="cls-2" d="M819.25,812.21v32.44s.07,78.95.07,78.95v28.81l.03,27.02.02,34.5v11.98s.06,36.7.06,36.7l33.96.14,58.26,1.2h.62s47.87.99,47.87.99l7.77.16,44.16.9,1.01.02,18.32.38,58.52,1.2,20.98.43,224.97,3.41-.19,10h7.16c-.09,6.98-6.44,7.07-6.75,7.07,6.91.63,6.75,7.11,6.75,7.11h-7.16v11.66l-63.52-.95-30.75-.46-39.39-.59-5.35-.08-65.91-.99-28.66-.43-43.72-.66-50.34-.75-21.94-.33-25.07-.37-46.66-.54-44.15-.51-52.42-.6v89.9h-5.41l-.18,9.74s-9.04-.56-9.54-9.47c0-.09-.14-.12-.16-.03-.59,2.01-3.17,8.93-10.64,9.11l.11-10.1-3.13-.08.21-72.78h-14.18v-2.44h13.67c-.13-6.65-11.25-8-11.25-8,9.35-.42,11.25-7.47,11.25-7.47h-13.67v-2.58h13.38l.14-48.85.15-49.82h-12.81v-2.61h11.56c0-6.77-9.57-7.83-9.57-7.83,7.58-.12,9.57-9.57,9.57-9.57h-11.56v-5.07h12.81s-1.17-7.13-8.27-7.13c0,0,8.08-.61,8.27-6.95v-63.6h-.89l-24.82-.16v-84.25h23.02l9.62.06v12.78s8.83-3.15,8.89-12.41c0,0,.99,12.35,9.39,12.41v-12.84h5.49v2.23Z"/>
        <path class="cls-2" d="M849.35,568.88h-6.71v16.86l6.71.06h40.1v21.31h-70.32l.02,32.63v8.05l.02,32.26v13.34s.02,23.6.02,23.6l.02,24.17.02,33.89v1.52l.02,30.2v3.21h-5.49v12.84c-8.4-.06-9.39-12.41-9.39-12.41-.06,9.26-8.89,12.41-8.89,12.41v-12.78l-9.62-.06.2-34.93.02-2.78.14-25.33.47-82.53.34-58.91.21-36.67h.02l71.53.03v.02h-9.44Z"/>
        <polygon class="cls-1" points="1677.04 1080.79 1677.04 1111.54 1542.38 1096.1 1542.57 1079.31 1677.04 1080.79"/>
        <polygon class="cls-1" points="1677.04 1111.54 1676.99 1123.31 1676.79 1171.33 1676.57 1225.47 1676.52 1237.67 1516.29 1236.57 1516.37 1224.81 1516.75 1170.68 1517.76 1079.03 1542.57 1079.31 1542.38 1096.1 1677.04 1111.54"/>
        <polygon class="cls-1" points="1664.78 1479.76 1664.78 1524.06 1590.7 1522.79 1591.46 1478.67 1664.78 1479.76"/>
        <polygon class="cls-1" points="1591.46 1478.67 1590.7 1522.79 1534.34 1521.82 1514.31 1521.52 1514.62 1477.52 1591.46 1478.67"/>
        <polygon class="cls-1" points="1460.42 1579.6 1459.71 1574.83 1540.41 1561.91 1555.34 1648.09 1473.73 1660.27 1460.55 1580.47 1460.42 1579.6"/>
        <polygon class="cls-1" points="1411.55 1148.51 1411.55 1148.49 1411.55 1147.24 1411.55 1140.49 1411.55 1128.35 1411.55 1127.62 1411.55 1120.35 1411.55 1107.48 1490.46 1107.48 1490.17 1201.71 1411.25 1201.47 1411.24 1201.47 1411.55 1148.51"/>
        <polygon class="cls-1" points="1490.17 1201.71 1490.08 1231.74 1489.96 1270.53 1489.88 1296.1 1410.7 1295.85 1410.85 1270.29 1411.07 1231.5 1411.24 1201.47 1411.25 1201.47 1490.17 1201.71"/>
        <polygon class="cls-1" points="1489.88 1296.1 1489.6 1385.15 1489.59 1389.55 1410.15 1389.31 1410.18 1384.91 1410.7 1295.85 1489.88 1296.1"/>
        <polygon class="cls-1" points="1489.59 1389.55 1489.41 1448.69 1489.32 1477.63 1409.63 1477.38 1409.81 1448.44 1410.15 1389.31 1489.59 1389.55"/>
        <polygon class="cls-1" points="1489.32 1477.63 1489.19 1519.78 1461.74 1519.78 1459.56 1550.31 1421.61 1556.5 1409.63 1479.82 1409.63 1477.38 1489.32 1477.63"/>
        <polygon class="cls-1" points="1473.73 1660.27 1473.73 1660.28 1472.49 1660.46 1389.15 1673.39 1361.42 1677.69 1361.37 1677.35 1347.82 1598.94 1375.48 1594.27 1460.42 1579.6 1460.55 1580.47 1473.73 1660.27"/>
        <polygon class="cls-2" points="1411.55 1128.35 1411.55 1140.49 1402.92 1140.49 1403.08 1128.57 1403.08 1128.33 1411.55 1128.35"/>
        <polygon class="cls-2" points="1411.55 1127.62 1411.55 1128.35 1403.08 1128.33 1402.98 1128.33 1403.08 1120.57 1403.08 1120.33 1411.55 1120.35 1411.55 1127.62"/>
        <polygon class="cls-2" points="1407.58 1539.92 1408.68 1546.91 1389.22 1550.31 1388.27 1543.61 1388.84 1543.53 1407.58 1539.92"/>
        <polygon class="cls-2" points="1406.59 1533.66 1407.58 1539.92 1388.84 1543.53 1388.27 1543.61 1387.37 1537.32 1387.97 1537.24 1406.59 1533.66"/>
        <polygon class="cls-2" points="1405.53 1526.96 1406.59 1533.66 1387.97 1537.24 1387.37 1537.32 1386.42 1530.6 1387.26 1530.48 1405.53 1526.96"/>
        <polygon class="cls-2" points="1404.5 1520.42 1405.53 1526.96 1387.26 1530.48 1386.42 1530.6 1385.49 1524.06 1385.86 1524.01 1404.5 1520.42"/>
        <polygon class="cls-2" points="1403.49 1514.08 1404.5 1520.42 1385.86 1524.01 1385.49 1524.06 1384.58 1517.71 1384.74 1517.69 1403.49 1514.08"/>
        <polygon class="cls-2" points="1402.47 1507.61 1403.49 1514.08 1384.74 1517.69 1384.58 1517.71 1383.66 1511.22 1383.76 1511.21 1402.47 1507.61"/>
        <polygon class="cls-2" points="1403.08 1128.33 1403.08 1128.57 1402.92 1140.49 1402.82 1140.49 1402.98 1128.33 1403.08 1128.33"/>
        <polygon class="cls-2" points="1402.98 1128.33 1402.82 1140.49 1402.92 1140.49 1402.82 1148.49 1394.88 1148.49 1394.88 1147.66 1395.13 1128.32 1402.98 1128.33"/>
        <polygon class="cls-2" points="1401.45 1501.1 1402.47 1507.61 1383.76 1511.21 1383.66 1511.22 1382.73 1504.7 1401.36 1501.11 1401.45 1501.1"/>
        <polygon class="cls-2" points="1400.43 1494.69 1401.45 1501.1 1401.36 1501.11 1382.73 1504.7 1381.81 1498.26 1381.98 1498.24 1400.43 1494.69"/>
        <polygon class="cls-2" points="1399.42 1488.27 1400.43 1494.69 1381.98 1498.24 1381.81 1498.26 1380.89 1491.75 1399.42 1488.27"/>
        <polygon class="cls-2" points="1395.13 1128.32 1394.88 1147.66 1394.88 1148.49 1387.75 1148.49 1387.75 1148.18 1388.01 1128.3 1395.13 1128.32"/>
        <polygon class="cls-1" points="1382.73 1504.7 1383.66 1511.22 1384.58 1517.71 1385.49 1524.06 1386.42 1530.6 1387.37 1537.32 1388.27 1543.61 1389.22 1550.31 1391.04 1561.48 1365.39 1565.66 1352.9 1489.05 1379.91 1484.91 1380 1485.52 1380.89 1491.75 1381.81 1498.26 1382.73 1504.7"/>
        <polygon class="cls-2" points="1388.01 1128.3 1387.75 1148.18 1387.75 1148.49 1380.63 1148.49 1380.88 1129.29 1380.88 1128.29 1388.01 1128.3"/>
        <polygon class="cls-2" points="1380.88 1128.29 1380.88 1129.29 1380.63 1148.49 1373.49 1148.49 1373.74 1128.57 1373.74 1128.27 1380.88 1128.29"/>
        <polygon class="cls-2" points="1373.74 1128.27 1373.74 1128.57 1373.49 1148.49 1366.35 1148.49 1366.35 1148.18 1366.61 1128.26 1373.74 1128.27"/>
        <polygon class="cls-2" points="1366.61 1128.26 1366.35 1148.18 1366.35 1148.49 1358.13 1148.49 1358.3 1128.24 1366.61 1128.26"/>
        <polygon class="cls-1" points="1352.9 1489.05 1365.39 1565.66 1336.49 1570.38 1324.71 1493.61 1324.67 1493.38 1352.9 1489.05"/>
        <polygon class="cls-1" points="1361.37 1677.35 1361.42 1677.69 1264.64 1692.71 1252.59 1615.02 1347.82 1598.94 1361.37 1677.35"/>
        <polygon class="cls-1" points="1324.71 1493.61 1336.49 1570.38 1249.21 1584.61 1235.17 1507.11 1324.67 1493.38 1324.71 1493.61"/>
        <polygon class="cls-5" points="1335.68 1148.51 1335.68 1220.75 1272.16 1219.74 1272.16 1106.33 1335.68 1107.28 1335.68 1147.68 1335.68 1148.51"/>
        <polygon class="cls-5" points="1272.16 1106.33 1272.16 1219.74 1241.4 1219.25 1202.02 1218.62 1202.02 1105.28 1241.41 1105.87 1272.16 1106.33"/>
        <polygon class="cls-1" points="1252.59 1615.02 1264.64 1692.71 1224.78 1698.9 1163.68 1708.69 1151.41 1632.1 1251.03 1615.28 1252.59 1615.02"/>
        <polygon class="cls-1" points="1235.17 1507.11 1249.21 1584.61 1245.58 1585.2 1154.1 1600.11 1153.87 1598.7 1139.93 1521.72 1235.17 1507.11"/>
        <polygon class="cls-5" points="1202.02 1105.28 1202.02 1218.62 1194.86 1218.51 1130.75 1217.49 1130.76 1216.84 1130.76 1104.21 1196.67 1105.2 1202.02 1105.28"/>
        <polygon class="cls-1" points="1151.41 1632.1 1163.68 1708.69 1130.52 1714 1053.78 1726.71 1041.15 1650.41 1117.7 1637.79 1151.41 1632.1"/>
        <polygon class="cls-1" points="1153.87 1598.7 1154.1 1600.11 1059.88 1615.47 1059.74 1614.61 1045.69 1536.18 1139.93 1521.72 1153.87 1598.7"/>
        <polygon class="cls-5" points="1130.76 1104.21 1130.76 1216.84 1130.75 1217.49 1102.1 1217.03 1056.57 1216.3 1058.38 1103.13 1058.38 1103.12 1102.1 1103.78 1130.76 1104.21"/>
        <polygon class="cls-5" points="1111.6 1035.12 1110.9 1068.03 1089.92 1067.6 1031.4 1066.4 1013.08 1066.02 1032.4 1066.23 1033.06 1034.12 1033.07 1033.66 1111.6 1035.12"/>
        <polygon class="cls-1" points="1059.74 1614.61 1059.88 1615.47 1011.72 1623.33 1011.62 1622.73 998.22 1543.43 1013.79 1541.07 1045.69 1536.18 1059.74 1614.61"/>
        <polygon class="cls-5" points="1058.38 1103.12 1058.38 1103.13 1056.57 1216.3 1006.24 1215.5 986.32 1215.18 986.1 1102.04 1008.04 1102.37 1058.38 1103.12"/>
        <polygon class="cls-1" points="949.78 1690.26 948.79 1683.78 947.79 1677.19 946.11 1666.08 971.03 1661.97 1041.15 1650.41 1053.78 1726.71 957.72 1742.62 955.53 1728.16 954.35 1720.37 953.32 1713.59 952.45 1707.86 951.55 1701.94 950.65 1695.99 949.78 1690.26"/>
        <polygon class="cls-5" points="1033.07 1033.66 1033.06 1034.12 1032.4 1066.23 1013.08 1066.02 1012.07 1066 967.91 1065.1 967.92 1064.71 967.92 1032.44 1033.07 1033.66"/>
        <polygon class="cls-1" points="1003.77 1475.84 1013.79 1541.07 998.22 1543.43 940.42 1552.2 894.38 1559.19 884.11 1495.57 1003.77 1475.84"/>
        <polygon class="cls-1" points="1011.62 1622.73 1011.72 1623.33 952.67 1632.95 952.63 1632.7 940.42 1552.21 940.42 1552.2 998.22 1543.43 1011.62 1622.73"/>
        <polygon class="cls-1" points="997.08 1432.33 1003.77 1475.84 884.11 1495.57 877.03 1451.72 872.65 1424.58 992.7 1403.81 997.08 1432.33"/>
        <polygon class="cls-1" points="986.1 1360.88 992.7 1403.81 872.65 1424.58 865.5 1380.36 861.11 1353.21 981.92 1333.69 986.1 1360.88"/>
        <polygon class="cls-5" points="986.1 1102.04 986.32 1215.18 959.23 1214.75 914.37 1214.04 914.37 1213.74 914.37 1189.08 914.37 1101.13 961.03 1101.67 986.1 1102.04"/>
        <polygon class="cls-1" points="970.61 1260.11 981.92 1333.69 861.11 1353.21 849.38 1280.58 851.63 1280.2 864.35 1278.05 877.07 1275.9 970.61 1260.11"/>
        <polygon class="cls-5" points="967.92 1032.44 967.92 1064.71 967.91 1065.1 960.14 1064.94 912.27 1063.96 911.65 1063.95 912.31 1031.57 912.93 1031.42 967.92 1032.44"/>
        <polygon class="cls-2" points="954.35 1720.37 955.53 1728.16 955.51 1728.16 933.5 1731.79 932.31 1723.73 953.72 1720.47 954.35 1720.37"/>
        <polygon class="cls-2" points="953.32 1713.59 954.35 1720.37 953.72 1720.47 932.31 1723.73 931.3 1716.93 953 1713.64 953.32 1713.59"/>
        <polygon class="cls-2" points="952.45 1707.86 953.32 1713.59 953 1713.64 931.3 1716.93 930.45 1711.2 931.12 1711.1 952.45 1707.86"/>
        <polygon class="cls-1" points="952.63 1632.7 952.67 1632.95 907.49 1640.32 894.38 1559.19 940.42 1552.2 940.42 1552.21 952.63 1632.7"/>
        <polygon class="cls-2" points="951.55 1701.94 952.45 1707.86 931.12 1711.1 930.45 1711.2 929.58 1705.27 929.77 1705.24 951.55 1701.94"/>
        <polygon class="cls-2" points="950.65 1695.99 951.55 1701.94 929.77 1705.24 929.58 1705.27 928.7 1699.32 950.16 1696.06 950.65 1695.99"/>
        <polygon class="cls-2" points="949.78 1690.26 950.65 1695.99 950.16 1696.06 928.7 1699.32 927.85 1693.58 928.28 1693.52 949.78 1690.26"/>
        <polygon class="cls-2" points="948.79 1683.78 949.78 1690.26 928.28 1693.52 927.85 1693.58 926.91 1687.24 926.89 1687.1 926.91 1687.1 948.79 1683.78"/>
        <polygon class="cls-2" points="947.79 1677.19 948.79 1683.78 926.91 1687.1 926.89 1687.1 925.91 1680.51 947.79 1677.19"/>
        <polygon class="cls-1" points="925.91 1747.89 929.18 1770.87 789.74 1793.55 773.26 1692.31 772.67 1688.68 883.03 1670.71 883.61 1674.62 915.02 1670.65 925.91 1747.89"/>
        <polygon class="cls-5" points="916.53 607.21 916.39 631.27 916.35 637.66 916.3 646.39 916.25 655 916.22 659.73 916.1 679.99 916.03 693.33 819.81 693.39 819.18 693.39 819.17 680.05 819.15 647.79 819.15 639.74 819.13 607.11 889.45 607.11 890.45 607.11 916.53 607.21"/>
        <polygon class="cls-5" points="916.03 693.33 916 698.1 915.96 704.67 915.88 717.56 915.74 741.73 915.53 777.13 819.91 776.57 819.85 776.57 819.23 776.57 819.23 775.05 819.21 741.16 819.19 716.99 819.18 693.39 819.81 693.39 916.03 693.33"/>
        <polygon class="cls-5" points="915.53 777.13 915.32 812.78 819.25 812.21 819.25 809.98 819.25 806.77 819.23 776.57 819.85 776.57 819.91 776.57 915.53 777.13"/>
        <polygon class="cls-5" points="915.32 812.78 915.32 813.32 906.21 813.33 905.87 845.56 819.26 844.65 819.25 831.39 819.25 812.21 915.32 812.78"/>
        <polygon class="cls-5" points="914.93 845.64 914.47 888.5 913.96 936.09 819.32 935.07 819.32 923.6 819.26 844.65 905.87 845.56 914.93 845.64"/>
        <polygon class="cls-5" points="914.37 1213.74 914.37 1214.04 895.5 1213.74 874.15 1213.74 870.22 1213.74 870.22 1189.08 914.37 1189.08 914.37 1213.74"/>
        <polygon class="cls-5" points="914.37 1101.13 914.37 1189.08 870.22 1189.08 870.22 1100.63 870.22 1100.62 914.37 1101.13"/>
        <polygon class="cls-5" points="913.96 936.09 913.92 939.53 913.5 978.72 912.98 1026.93 819.39 1025.91 819.38 1025.91 819.37 1013.93 819.35 979.43 819.32 952.41 819.32 935.07 913.96 936.09"/>
        <polygon class="cls-5" points="912.98 1026.93 912.93 1031.42 912.31 1031.57 911.65 1063.95 853.39 1062.75 819.43 1062.61 819.38 1025.91 819.39 1025.91 912.98 1026.93"/>
        <polygon class="cls-2" points="889.45 568.88 889.45 585.8 882.79 585.8 882.79 569.07 882.79 568.88 889.45 568.88"/>
        <polygon class="cls-1" points="867.15 1563.98 883.03 1670.71 772.67 1688.68 755.08 1580.65 866.92 1562.44 867.15 1563.98"/>
        <polygon class="cls-2" points="882.79 569.07 882.79 585.8 877.86 585.8 877.86 569.25 877.86 568.88 882.79 568.88 882.79 569.07"/>
        <polygon class="cls-2" points="877.86 569.25 877.86 585.8 872.94 585.8 872.94 569.88 872.94 568.88 877.86 568.88 877.86 569.25"/>
        <polygon class="cls-2" points="872.94 569.88 872.94 585.8 868.22 585.8 868.22 569.7 868.22 568.88 872.94 568.88 872.94 569.88"/>
        <polygon class="cls-5" points="856.71 1213.74 848.48 1213.74 840.82 1213.74 833.38 1213.74 817.94 1213.74 817.8 1190.72 817.8 1189.92 817.8 1148.63 817.8 1100.02 870.22 1100.62 870.22 1100.63 870.22 1189.08 870.22 1213.74 865.34 1213.74 856.71 1213.74"/>
        <polygon class="cls-2" points="868.22 569.7 868.22 585.8 863.5 585.8 863.5 569.7 863.5 568.88 868.22 568.88 868.22 569.7"/>
        <polygon class="cls-1" points="855.57 1486.12 866.92 1562.44 755.08 1580.65 742.68 1504.51 741.47 1497.09 854.47 1478.69 855.57 1486.12"/>
        <polygon class="cls-2" points="863.5 569.7 863.5 585.8 858.79 585.8 858.79 585.46 858.79 568.88 863.5 568.88 863.5 569.7"/>
        <polygon class="cls-2" points="858.79 585.46 858.79 585.8 854.07 585.8 854.07 568.88 858.79 568.88 858.79 585.46"/>
        <polygon class="cls-1" points="854.47 1478.69 741.47 1497.09 730.13 1427.44 844.08 1408.89 854.47 1478.69"/>
        <rect class="cls-2" x="849.35" y="568.88" width="4.72" height="16.92"/>
        <polygon class="cls-2" points="849.35 568.88 849.35 585.8 842.64 585.74 842.64 568.88 849.35 568.88"/>
        <polygon class="cls-1" points="839.84 1380.36 844.08 1408.89 730.13 1427.44 725.5 1398.98 725.49 1398.98 719.33 1361.12 833.38 1342.56 834.2 1342.44 839.84 1380.36"/>
        <polygon class="cls-1" points="825.55 1284.29 834.2 1342.44 833.38 1342.56 719.33 1361.12 709.77 1302.4 767.55 1293.36 825.52 1284.08 825.55 1284.29"/>
        <polygon class="cls-5" points="789.06 1116.31 788.85 1189.09 788.82 1199.27 787.17 1199.27 758.74 1199.27 738.37 1199.27 738.37 1185.63 711.55 1185.35 711.77 1116.11 774.88 1116.31 789.06 1116.31"/>
        <path class="cls-2" d="M759.07,940.59v-46.36h3.77l24.82.16h.89v63.6c-.19,6.34-8.27,6.95-8.27,6.95,7.1,0,8.27,7.13,8.27,7.13h-47.86v-11.69h18.38v-19.79Z"/>
        <polygon class="cls-5" points="788.55 997.15 788.4 1046.97 715.77 1046.76 715.77 994.89 775.74 994.54 775.74 997.15 788.55 997.15"/>
        <polygon class="cls-5" points="788.4 1046.97 788.26 1095.82 774.88 1095.82 715.77 1095.82 715.77 1046.76 788.4 1046.97"/>
        <polygon class="cls-5" points="787.26 565.89 787.24 568.83 787.03 605.5 786.69 664.41 701.13 663.92 702.22 605.5 702.96 565.89 724.45 565.89 736.98 565.89 787.26 565.89"/>
        <polygon class="cls-5" points="786.69 664.41 786.22 746.94 786.08 772.27 699.11 771.78 699.59 746.44 699.7 740.49 701.13 663.92 786.69 664.41"/>
        <polygon class="cls-5" points="786.08 772.27 786.06 775.05 785.86 809.98 762.84 809.98 698.4 809.98 699.06 774.54 699.11 771.78 786.08 772.27"/>
        <rect class="cls-2" x="740.69" y="953.84" width="18.38" height="6.54"/>
        <polygon class="cls-2" points="759.07 947.21 759.07 953.84 740.69 953.84 740.69 947.21 741.25 947.21 759.07 947.21"/>
        <polygon class="cls-2" points="759.07 940.59 759.07 947.21 741.25 947.21 740.69 947.21 740.69 940.59 741.68 940.59 759.07 940.59"/>
        <polygon class="cls-2" points="759.07 933.96 759.07 940.59 741.68 940.59 740.69 940.59 740.69 933.96 741.68 933.96 759.07 933.96"/>
        <polygon class="cls-2" points="759.07 927.3 759.07 933.96 741.68 933.96 740.69 933.96 740.69 927.3 759.07 927.3"/>
        <rect class="cls-2" x="740.69" y="920.64" width="18.38" height="6.66"/>
        <polygon class="cls-2" points="759.07 913.98 759.07 920.64 740.69 920.64 740.69 913.97 741.12 913.98 759.07 913.98"/>
        <polygon class="cls-2" points="759.07 913.98 741.12 913.98 740.69 913.97 740.69 907.32 741.12 907.32 759.07 907.32 759.07 913.98"/>
        <polygon class="cls-2" points="759.07 900.66 759.07 907.32 741.12 907.32 740.69 907.32 740.69 900.66 759.06 900.66 759.07 900.66"/>
        <polygon class="cls-2" points="759.07 894.23 759.07 900.66 759.06 900.66 740.69 900.66 740.69 894.23 759.07 894.23"/>
        <polygon class="cls-2" points="758.74 1199.27 758.54 1234.41 738.37 1234.41 738.37 1199.27 758.74 1199.27"/>
        <polygon class="cls-5" points="740.69 900.66 740.69 907.32 740.69 913.97 740.69 920.64 740.69 927.3 740.69 933.96 740.69 940.59 740.69 947.21 740.69 953.84 740.69 960.38 740.69 972.07 740.69 976.59 740.69 977.04 674.63 976.86 674.86 894.23 674.86 894.13 740.69 894.23 740.69 900.66"/>
        <polygon class="cls-5" points="715.77 1046.76 715.77 1095.82 659.72 1095.82 659.44 1046.59 715.77 1046.76"/>
        <polygon class="cls-5" points="715.77 994.89 715.77 1046.76 659.44 1046.59 659.14 995.22 659.14 995.21 715.77 994.89"/>
        <polygon class="cls-5" points="711.77 1116.11 711.55 1185.35 664.98 1184.87 665.19 1115.96 711.77 1116.11"/>
        <polygon class="cls-5" points="674.86 894.13 674.86 894.23 674.63 976.86 605.89 976.67 606.12 894.02 674.86 894.13"/>
        <polygon class="cls-5" points="665.19 1115.96 664.98 1184.87 596.56 1184.15 597.31 1132.84 614.35 1132.84 614.35 1115.8 665.19 1115.96"/>
        <polygon class="cls-5" points="606.12 894.02 605.89 976.67 578.57 976.59 531.53 976.59 532.52 893.91 606.12 894.02"/>
        <polygon class="cls-5" points="597.31 1117.88 597.31 1132.84 596.56 1184.15 529.05 1183.45 529.84 1117.88 597.31 1117.88"/>
        <polygon class="cls-5" points="597.31 1043.16 597.31 1117.88 529.84 1117.88 530.73 1043.16 597.31 1043.16"/>
        <polygon class="cls-5" points="597.31 993.97 597.31 1043.16 530.73 1043.16 531.53 976.59 578.57 976.59 578.57 993.97 597.31 993.97"/>
      </g>
      <g>
        <path class="cls-4" d="M775.74,972.07v5.07h11.56s-1.99,9.45-9.57,9.57c0,0,9.57,1.06,9.57,7.83h-11.56v2.61h12.81l-.15,49.82-.14,48.85h-13.38v2.58h13.67s-1.9,7.05-11.25,7.47c0,0,11.12,1.35,11.25,8h-13.67v2.44h14.18l-.21,72.78-.03,10.18h-1.65"/>
        <line class="cls-3" x1="1352.9" y1="1489.05" x2="1365.39" y2="1565.66"/>
        <line class="cls-3" x1="1041.15" y1="1650.41" x2="1053.78" y2="1726.71"/>
        <polyline class="cls-4" points="889.45 568.88 889.45 524.05 889.45 523.74 960.12 523.98 960.12 468.82 960.12 280.47 824.4 279.52 824.17 268.09 604.79 262.36 603.02 452.3 602.41 518.95 724.45 520.3 724.45 520.42 724.45 565.89"/>
        <line class="cls-4" x1="889.45" y1="607.11" x2="889.45" y2="585.8"/>
        <line class="cls-4" x1="889.45" y1="585.8" x2="889.45" y2="568.88"/>
        <polyline class="cls-4" points="787.26 568.83 858.79 568.86 882.79 568.88 889.45 568.88"/>
        <polygon class="cls-4" points="724.45 565.89 702.96 565.89 702.22 605.5 701.13 663.92 699.7 740.49 699.59 746.44 699.11 771.78 699.06 774.54 698.4 809.98 762.84 809.98 785.86 809.98 786.06 775.05 786.08 772.27 786.22 746.94 786.69 664.41 787.03 605.5 787.24 568.83 787.26 565.89 736.98 565.89 724.45 565.89"/>
        <polygon class="cls-4" points="916.03 693.33 916.1 679.99 916.22 659.73 916.25 655 916.3 646.39 916.35 637.66 916.39 631.27 916.53 607.21 890.45 607.11 889.45 607.11 819.13 607.11 819.15 639.74 819.15 647.79 819.17 680.05 819.18 693.39 819.19 716.99 819.21 741.16 819.23 775.05 819.23 776.57 819.25 806.77 819.25 809.98 819.25 812.21 819.25 831.39 819.26 844.65 819.32 923.6 819.32 935.07 819.32 952.41 819.35 979.43 819.37 1013.93 819.38 1025.91 819.43 1062.61 853.39 1062.75 911.65 1063.95 912.27 1063.96 960.14 1064.94 967.91 1065.1 1012.07 1066 1013.08 1066.02 1031.4 1066.4 1089.92 1067.6 1110.9 1068.03 1111.6 1035.12 1033.07 1033.66 967.92 1032.44 912.93 1031.42 912.98 1026.93 913.5 978.72 913.92 939.53 913.96 936.09 914.47 888.5 914.93 845.64 905.87 845.56 906.21 813.33 915.32 813.32 915.32 812.78 915.53 777.13 915.74 741.73 915.88 717.56 915.96 704.67 916 698.1 916.03 693.33"/>
        <path class="cls-4" d="M785.86,809.98l9.62.06v12.78s8.83-3.15,8.89-12.41c0,0,.99,12.35,9.39,12.41v-12.84h5.49"/>
        <path class="cls-4" d="M762.84,809.98v84.25h-22.15v77.84h47.86s-1.17-7.13-8.27-7.13c0,0,8.08-.61,8.27-6.95l-8.64.07"/>
        <line class="cls-4" x1="762.84" y1="894.23" x2="787.66" y2="894.39"/>
        <polyline class="cls-4" points="788.55 957.99 788.55 894.39 788.55 893.4"/>
        <polyline class="cls-4" points="842.64 568.88 842.64 585.74 849.35 585.8 854.07 585.8 858.79 585.8 863.5 585.8 868.22 585.8 872.94 585.8 877.86 585.8 882.79 585.8 889.45 585.8"/>
        <line class="cls-4" x1="849.35" y1="568.88" x2="849.35" y2="585.8"/>
        <line class="cls-4" x1="854.07" y1="568.88" x2="854.07" y2="585.8"/>
        <polyline class="cls-4" points="858.79 568.54 858.79 568.86 858.79 568.88 858.79 585.46"/>
        <polyline class="cls-4" points="863.5 569.7 863.5 585.8 863.5 586.62"/>
        <polyline class="cls-4" points="868.22 569.7 868.22 585.8 868.22 586.62"/>
        <polyline class="cls-4" points="872.94 569.88 872.94 585.8 872.94 586.8"/>
        <polyline class="cls-4" points="877.86 569.25 877.86 585.8 877.86 586.17"/>
        <polyline class="cls-4" points="882.79 569.07 882.79 585.8 882.79 585.99"/>
        <polyline class="cls-4" points="759.07 894.23 759.07 900.66 759.07 907.32 759.07 913.98 759.07 920.64 759.07 927.3 759.07 933.96 759.07 940.59 759.07 947.21 759.07 953.84 759.07 960.38 740.69 960.38"/>
        <line class="cls-4" x1="740.69" y1="953.84" x2="759.07" y2="953.84"/>
        <polyline class="cls-4" points="741.25 947.21 759.07 947.21 759.63 947.21"/>
        <polyline class="cls-4" points="741.68 940.59 759.07 940.59 760.06 940.59"/>
        <polyline class="cls-4" points="741.68 933.96 759.07 933.96 760.06 933.96"/>
        <line class="cls-4" x1="740.69" y1="927.3" x2="759.07" y2="927.3"/>
        <line class="cls-4" x1="740.69" y1="920.64" x2="759.07" y2="920.64"/>
        <line class="cls-4" x1="741.12" y1="913.97" x2="759.07" y2="913.98"/>
        <polyline class="cls-4" points="738.37 1199.27 738.37 1185.63 711.55 1185.35 664.98 1184.87 596.56 1184.15 529.05 1183.45 529.84 1117.88 530.73 1043.16 531.53 976.59 532.52 893.91 606.12 894.02 674.86 894.13 740.69 894.23"/>
        <line class="cls-4" x1="787.17" y1="1199.27" x2="758.74" y2="1199.27"/>
        <polyline class="cls-4" points="741.12 907.32 759.07 907.32 759.49 907.32"/>
        <polyline class="cls-4" points="740.68 900.66 740.69 900.66 759.06 900.66"/>
        <polygon class="cls-4" points="738.37 1199.27 738.37 1234.41 758.54 1234.41 758.74 1199.27 738.37 1199.27"/>
        <polyline class="cls-4" points="1050.79 465.53 1068.19 465.53 1112.08 397.52 1185.15 429.69 1181.41 434.17 1257.22 469.09 1253.98 474.08 1326.36 508.07 1320.37 519.37 1401.5 546.62 1401.94 546.77"/>
        <path class="cls-4" d="M926.52,1669.52c.89,5.98-6.97,6.65-6.97,6.65l-1.01-5.93-3.52.41-31.41,3.97-.58-3.91-15.88-106.73-.23-1.54-11.35-76.32-1.1-7.43-10.39-69.8-4.24-28.53-5.64-37.92-8.65-58.15"/>
        <path class="cls-4" d="M1117.7,1637.79l-76.55,12.62-70.12,11.56-24.92,4.11-11.82,1.95v6.78c-6.17.47-7.57-4.42-7.77-5.29,0-.03-.01-.05-.01-.07,0-.04,0-.06,0-.06"/>
        <polyline class="cls-4" points="1472.49 1660.46 1389.15 1673.39 1361.42 1677.69 1264.64 1692.71 1224.78 1698.9 1163.68 1708.69 1130.52 1714"/>
        <line class="cls-3" x1="1460.55" y1="1580.47" x2="1473.73" y2="1660.27"/>
        <polyline class="cls-4" points="1517.76 1079.03 1516.75 1170.68 1516.37 1224.81 1516.29 1236.57 1515.7 1322.08 1514.62 1477.52 1514.31 1521.52 1534.34 1521.82 1540.41 1561.91 1459.71 1574.83 1460.42 1579.6 1460.55 1580.47"/>
        <polyline class="cls-4" points="1516.29 1236.57 1676.52 1237.67 1676.57 1225.47 1676.79 1171.33 1676.99 1123.31 1677.04 1111.54"/>
        <polygon class="cls-4" points="1401.5 546.62 1414.43 505.95 1517.4 505.48 1517.4 443.77 1600.55 443.77 1600.55 427.83 1765.87 428.1 1765.87 444.66 1958.49 445.25 1955.94 730.64 1955 832.1 1944.83 831.99 1925.7 831.78 1851.75 830.99 1515.75 827.36 1499.34 827.18 1498.97 820.22 1364.94 818.61 1360.51 818.56 1319 806.26 1401.5 546.62"/>
        <path class="cls-4" d="M817.8,1189.92h-5.41l-.18,9.74s-9.04-.56-9.54-9.47c0-.09-.14-.12-.16-.03-.59,2.01-3.17,8.93-10.64,9.11l.11-10.1-3.13-.08"/>
        <path class="cls-4" d="M836.68,1281.91c-.28-1.54-1.25-9.09,6.92-10.91l2.09,10.06,3.69-.48,2.25-.39,6.25-1.07,6.46-1.11,6.55-1.12,6.17-1.06,18.44-3.16v-58.93h-77.56l-.14-23.02"/>
        <path class="cls-4" d="M758.37,1234.42h9.5l-.32,58.94,57.97-9.28,2.59-.42-1.44-10.16s8.56,1.85,10.01,8.41c.04.17.06.27.06.27"/>
        <polyline class="cls-4" points="817.8 1190.72 817.8 1189.92 817.8 1148.63 817.8 1100.02 870.22 1100.62 914.37 1101.13 961.03 1101.67 986.1 1102.04 1008.04 1102.37 1058.38 1103.12 1102.1 1103.78 1130.76 1104.21 1196.67 1105.2 1202.02 1105.28 1241.41 1105.87 1272.16 1106.33 1335.68 1107.28 1335.68 1147.68 1335.68 1148.51 1335.68 1220.75 1272.16 1219.74 1241.4 1219.25 1202.02 1218.62 1194.86 1218.51 1130.75 1217.49 1102.1 1217.03 1056.57 1216.3 1006.24 1215.5 986.32 1215.18 959.23 1214.75 914.37 1214.04 895.5 1213.74"/>
        <polyline class="cls-4" points="1411.55 1147.24 1411.55 1140.49 1411.55 1128.35 1403.08 1128.33 1402.98 1128.33 1395.13 1128.32 1388.01 1128.3 1380.88 1128.29 1373.74 1128.27 1366.61 1128.26 1358.3 1128.24 1358.13 1148.49 1358.13 1148.51 1358.12 1149.48"/>
        <line class="cls-4" x1="1411.55" y1="1168.11" x2="1411.55" y2="1148.51"/>
        <polyline class="cls-4" points="1335.68 1148.51 1358.13 1148.51 1380.63 1148.51 1411.54 1148.51"/>
        <polyline class="cls-4" points="925.91 1747.89 957.72 1742.62 1053.78 1726.71 1130.52 1714"/>
        <polyline class="cls-4" points="725.5 1398.98 730.13 1427.44 741.47 1497.09 742.68 1504.51 755.08 1580.65 772.67 1688.68 773.26 1692.31 789.74 1793.55 929.18 1770.87 925.91 1747.89"/>
        <polyline class="cls-4" points="767.55 1293.36 709.77 1302.4 719.33 1361.12 725.49 1398.98"/>
        <polyline class="cls-4" points="1117.7 1637.79 1151.41 1632.1 1251.03 1615.28 1252.59 1615.02 1347.82 1598.94 1375.48 1594.27 1460.42 1579.6 1460.43 1579.6"/>
        <line class="cls-4" x1="1944.83" y1="832.1" x2="1944.46" y2="860.82"/>
        <line class="cls-4" x1="915.02" y1="1670.65" x2="925.91" y2="1747.89"/>
        <polyline class="cls-4" points="946.11 1666.08 947.79 1677.19 948.79 1683.78 949.78 1690.26 950.65 1695.99 951.55 1701.94 952.45 1707.86 953.32 1713.59 954.35 1720.37 955.53 1728.16 957.72 1742.62 957.87 1743.6"/>
        <polyline class="cls-4" points="1380 1485.52 1380.89 1491.75 1381.81 1498.26 1382.73 1504.7 1383.66 1511.22 1384.58 1517.71 1385.49 1524.06 1386.42 1530.6 1387.37 1537.32 1388.27 1543.61 1389.22 1550.31 1391.04 1561.48"/>
        <polyline class="cls-4" points="1421.61 1556.5 1409.63 1479.82 1409.62 1479.76"/>
        <polyline class="cls-4" points="1389.22 1550.31 1408.68 1546.91 1407.58 1539.92 1406.59 1533.66 1405.53 1526.96 1404.5 1520.42 1403.49 1514.08 1402.47 1507.61 1401.45 1501.1 1400.43 1494.69 1399.42 1488.27 1380.89 1491.75 1380.88 1491.75"/>
        <polyline class="cls-4" points="947.79 1677.19 925.91 1680.51 926.89 1687.1 926.91 1687.24 927.85 1693.58 928.7 1699.32 929.58 1705.27 930.45 1711.2 931.3 1716.93 932.31 1723.73 933.5 1731.79 955.51 1728.16"/>
        <line class="cls-4" x1="948.79" y1="1683.78" x2="926.91" y2="1687.1"/>
        <polyline class="cls-4" points="950.16 1690.2 949.78 1690.26 928.28 1693.52"/>
        <polyline class="cls-4" points="950.16 1696.06 928.7 1699.32 928.28 1699.38"/>
        <polyline class="cls-4" points="951.65 1701.92 951.55 1701.94 929.77 1705.24"/>
        <polyline class="cls-4" points="953 1707.78 952.45 1707.86 931.12 1711.1"/>
        <polyline class="cls-4" points="953 1713.64 931.3 1716.93 931.12 1716.96"/>
        <polyline class="cls-4" points="953.72 1720.47 932.31 1723.73 931.84 1723.8"/>
        <polyline class="cls-4" points="1358.13 1148.49 1366.35 1148.49 1373.49 1148.49 1380.63 1148.49 1387.75 1148.49 1394.88 1148.49 1402.82 1148.49 1411.55 1148.49"/>
        <line class="cls-4" x1="1366.61" y1="1128.26" x2="1366.35" y2="1148.18"/>
        <line class="cls-4" x1="1373.74" y1="1128.57" x2="1373.49" y2="1148.49"/>
        <polyline class="cls-4" points="1380.88 1129.29 1380.63 1148.49 1380.63 1148.51 1380.62 1149.21"/>
        <polyline class="cls-4" points="1388.01 1128.26 1388.01 1128.3 1387.75 1148.18"/>
        <polyline class="cls-4" points="1395.14 1127.74 1395.13 1128.32 1394.88 1147.66"/>
        <line class="cls-4" x1="1402.97" y1="1128.56" x2="1402.71" y2="1148.48"/>
        <polyline class="cls-4" points="1381.98 1498.24 1400.43 1494.69 1400.73 1494.63"/>
        <polyline class="cls-4" points="1382.61 1504.72 1382.73 1504.7 1401.36 1501.11"/>
        <polyline class="cls-4" points="1383.76 1511.21 1402.47 1507.61 1402.51 1507.6"/>
        <line class="cls-4" x1="1384.74" y1="1517.69" x2="1403.49" y2="1514.08"/>
        <polyline class="cls-4" points="1385.86 1524.01 1404.5 1520.42 1404.61 1520.4"/>
        <polyline class="cls-4" points="1387.26 1530.48 1405.53 1526.96 1406.01 1526.87"/>
        <polyline class="cls-4" points="1387.97 1537.24 1406.59 1533.66 1406.72 1533.63"/>
        <polyline class="cls-4" points="1388.84 1543.53 1407.58 1539.92 1407.59 1539.92"/>
        <line class="cls-4" x1="1364.94" y1="857.14" x2="1364.09" y2="1077.33"/>
        <polyline class="cls-4" points="1495.99 1078.79 1509.51 1078.94 1517.76 1079.03 1542.57 1079.31 1677.04 1080.79 1777.94 1081.91 1792.79 1082.04 1855.03 1082.57"/>
        <polyline class="cls-4" points="1110.9 1068.03 1335.87 1071.44 1346.73 1071.6 1346.73 1077.14 1364.09 1077.33 1492.25 1078.75 1495.99 1078.79"/>
        <polyline class="cls-4" points="1006.19 611.01 1050.53 465.45 1058.95 437.83 1001.21 417.22 992.14 448.58 986.29 468.82 960.13 468.82"/>
        <polyline class="cls-4" points="1364.94 818.61 1364.94 857.14 1204.54 807.51 1221.08 749.67 1176.48 739.93 1176.48 747.58 1096.58 731.72 1096.58 741.35 1014.99 725.77 1014.99 704.67 1014.99 638.84 999.29 634.01 1006.19 611.01 1008.71 602.59"/>
        <polyline class="cls-3" points="916.64 693.33 916.03 693.33 819.81 693.39"/>
        <polyline class="cls-3" points="819.85 776.57 819.91 776.57 915.53 777.13 916.6 777.14"/>
        <polyline class="cls-3" points="1324.71 1493.61 1336.49 1570.38 1336.55 1570.78"/>
        <line class="cls-3" x1="1409.63" y1="1477.38" x2="1489.32" y2="1477.63"/>
        <polyline class="cls-3" points="912.31 1031.57 911.65 1063.95 911.65 1064.11"/>
        <polyline class="cls-3" points="967.92 1032.36 967.92 1032.44 967.92 1064.71"/>
        <polyline class="cls-3" points="1033.06 1034.12 1032.4 1066.23 1013.08 1066.02 1012.07 1066.01"/>
        <polyline class="cls-3" points="1347.7 1598.23 1347.82 1598.94 1361.37 1677.35"/>
        <polyline class="cls-3" points="1961.49 945.9 1944.46 945.9 1944.46 1014.93 1944.46 1083.96"/>
        <polyline class="cls-3" points="1515.75 826.92 1517.08 636.25 1517.41 588.53 1517.98 506.24"/>
        <line class="cls-4" x1="916.39" y1="704.67" x2="1014.99" y2="704.67"/>
        <polyline class="cls-3" points="819.12 812.21 819.18 812.21 819.25 812.21 915.32 812.78 915.87 812.78"/>
        <polyline class="cls-4" points="774.88 1116.31 711.77 1116.11 665.19 1115.96 614.35 1115.8 614.35 1132.84 597.31 1132.84 597.31 1117.88 597.31 1043.16 597.31 993.97 578.57 993.97 578.57 976.59 605.89 976.67 674.63 976.86 740.69 977.04 775.74 977.14"/>
        <polyline class="cls-4" points="775.74 994.54 715.77 994.89 659.14 995.21 614.85 995.47 614.85 1095.82 659.72 1095.82 715.77 1095.82 774.88 1095.82"/>
        <polyline class="cls-4" points="1411.55 1127.62 1411.55 1120.35 1411.55 1107.48 1490.46 1107.48 1490.17 1201.71 1490.08 1231.74 1489.96 1270.53 1489.88 1296.1 1489.6 1385.15 1489.59 1389.55 1489.41 1448.69 1489.32 1477.63 1489.19 1519.78 1461.74 1519.78 1459.56 1550.31 1421.61 1556.5 1391.04 1561.48 1365.39 1565.66 1336.49 1570.38 1249.21 1584.61 1245.58 1585.2 1154.1 1600.11 1059.88 1615.47 1011.72 1623.33 952.67 1632.95 907.49 1640.32 894.38 1559.19 884.11 1495.57 877.03 1451.72 872.65 1424.58 865.5 1380.36 861.11 1353.21 849.38 1280.58 851.63 1280.2 864.35 1278.05 877.07 1275.9 970.61 1260.11 981.92 1333.69 986.1 1360.88 992.7 1403.81 997.08 1432.33 1003.77 1475.84 1013.79 1541.07 1045.69 1536.18 1139.93 1521.72 1235.17 1507.11 1324.67 1493.38 1352.9 1489.05 1379.91 1484.91 1409.63 1480.35 1409.63 1479.82 1409.63 1477.38 1409.81 1448.44 1410.15 1389.31 1410.18 1384.91 1410.7 1295.85 1410.85 1270.29 1411.07 1231.5 1411.24 1201.47 1411.55 1148.51 1411.55 1148.49 1411.55 1147.24"/>
        <path class="cls-4" d="M1336.09,1088.51c.31,0,6.66-.09,6.75-7.07h-7.16l.19-10"/>
        <path class="cls-4" d="M1351.46,1107.28v-.09c-.17-5.98-8.49-8.06-8.49-8.06v8.15h-7.29v-11.66h7.16s.16-6.48-6.75-7.11h0"/>
        <path class="cls-4" d="M1411.55,1107.48h-52.53v-8.35c-7.34-.08-7.56,7.19-7.56,8.06"/>
        <polyline class="cls-4" points="833.38 1213.74 833.38 1235.65 841.06 1235.65 848.72 1235.65 856.95 1235.65 865.58 1235.65 874.35 1235.65 874.35 1257.83 895.5 1257.83"/>
        <polyline class="cls-4" points="840.82 1213.74 841.06 1235.65 841.06 1235.78"/>
        <polyline class="cls-4" points="848.48 1213.36 848.48 1213.74 848.72 1235.4"/>
        <polyline class="cls-4" points="856.71 1213.36 856.71 1213.74 856.95 1235.4"/>
        <polyline class="cls-4" points="865.34 1213.74 865.58 1235.65 865.58 1235.78"/>
        <polyline class="cls-4" points="874.15 1213.74 874.39 1235.65 874.39 1235.78"/>
        <path class="cls-4" d="M1245.58,1585.2l.87,5.13,9.89-1.35s-1.46,9.69-7.66,10.81c0,0,7.63-1.07,10.49,7.94l-9.08,1.76.94,5.79"/>
        <polyline class="cls-4" points="1677.04 1080.66 1677.04 1080.79 1677.04 1111.54"/>
        <polyline class="cls-4" points="1677.04 1111.54 1806.04 1113.85 1826.33 1114.21 1862.58 1114.85 1901.6 1115.54 1920.34 1115.87 2018.73 1117.61 2018.41 1196.49"/>
        <polyline class="cls-3" points="1542.57 1079.31 1542.38 1096.1 1677.04 1111.54"/>
        <polyline class="cls-4" points="2247.97 1088.66 2135.33 1086.92 2127.01 1086.79 2069.88 1085.9 2047.16 1085.55 1944.46 1083.96 1855.03 1082.57 1858.3 860.82 1944.45 861.63 1962.55 861.8 1961.49 945.9 2135.33 946.89 2248.12 947.53 2248.12 1088.66 2248.12 1121.26 2221.17 1121.18 2221.17 1121.35 2221.13 1160.13 2221.1 1197.25 2018.41 1196.49"/>
        <polyline class="cls-4" points="1534.34 1521.82 1590.7 1522.79 1664.78 1524.06 1664.78 1479.76 1591.46 1478.67 1514.62 1477.52 1513.92 1477.51"/>
        <polyline class="cls-3" points="1509.52 1077.99 1509.52 880.2 1794.51 880.52 1792.79 1082.04"/>
        <line class="cls-3" x1="2135.33" y1="1086.92" x2="2135.33" y2="946.89"/>
        <line class="cls-3" x1="701.13" y1="663.92" x2="786.69" y2="664.41"/>
        <line class="cls-3" x1="699.11" y1="771.78" x2="786.08" y2="772.27"/>
        <polyline class="cls-3" points="905.87 845.56 819.26 844.65 819.12 844.65"/>
        <polyline class="cls-3" points="819.12 935.07 819.32 935.07 913.96 936.09"/>
        <line class="cls-3" x1="819.39" y1="1025.91" x2="912.98" y2="1026.93"/>
        <polyline class="cls-3" points="715.77 994.89 715.77 1046.76 715.77 1095.82"/>
        <polyline class="cls-3" points="659.43 1046.59 659.44 1046.59 715.77 1046.76 788.4 1046.97"/>
        <polyline class="cls-3" points="711.55 1185.41 711.55 1185.35 711.77 1116.11"/>
        <polyline class="cls-3" points="664.98 1185.04 664.98 1184.87 665.19 1115.96"/>
        <polyline class="cls-3" points="596.56 1184.43 596.56 1184.15 597.31 1132.84"/>
        <line class="cls-3" x1="529.84" y1="1117.88" x2="597.31" y2="1117.88"/>
        <line class="cls-3" x1="530.73" y1="1043.16" x2="597.31" y2="1043.16"/>
        <line class="cls-3" x1="531.53" y1="976.59" x2="578.57" y2="976.59"/>
        <polyline class="cls-3" points="606.12 893.91 606.12 894.02 605.89 976.67"/>
        <line class="cls-3" x1="674.86" y1="894.23" x2="674.63" y2="976.86"/>
        <polyline class="cls-3" points="614.85 1095.82 637.11 1045.26 659.14 995.22 659.44 1046.59 659.72 1095.82 637.11 1045.26 614.85 995.47"/>
        <polyline class="cls-3" points="870.22 1100.63 870.22 1189.08 870.22 1213.74"/>
        <polyline class="cls-3" points="914.37 1101.13 914.37 1189.08 914.37 1213.74"/>
        <line class="cls-3" x1="870.22" y1="1189.08" x2="914.37" y2="1189.08"/>
        <line class="cls-3" x1="986.1" y1="1102.04" x2="986.32" y2="1215.18"/>
        <line class="cls-3" x1="1058.38" y1="1103.13" x2="1056.57" y2="1216.3"/>
        <line class="cls-3" x1="1130.76" y1="1104.21" x2="1130.76" y2="1216.84"/>
        <polyline class="cls-3" points="1202.02 1105.28 1202.02 1218.62 1202.02 1218.63"/>
        <polyline class="cls-3" points="1272.16 1106.33 1272.16 1219.74 1272.16 1220.15"/>
        <line class="cls-3" x1="719.33" y1="1361.12" x2="833.38" y2="1342.56"/>
        <line class="cls-3" x1="730.13" y1="1427.44" x2="844.08" y2="1408.89"/>
        <line class="cls-3" x1="741.47" y1="1497.09" x2="854.47" y2="1478.69"/>
        <line class="cls-3" x1="755.08" y1="1580.65" x2="866.92" y2="1562.44"/>
        <polyline class="cls-3" points="772.67 1688.68 883.03 1670.71 883.41 1670.65"/>
        <line class="cls-3" x1="861.11" y1="1353.21" x2="981.92" y2="1333.69"/>
        <line class="cls-3" x1="872.65" y1="1424.58" x2="992.7" y2="1403.81"/>
        <line class="cls-3" x1="884.11" y1="1495.57" x2="1003.77" y2="1475.84"/>
        <polyline class="cls-3" points="1013.79 1541.07 998.22 1543.43 940.42 1552.2 894.38 1559.19"/>
        <polyline class="cls-3" points="1045.65 1535.96 1045.69 1536.18 1059.74 1614.61"/>
        <line class="cls-3" x1="940.42" y1="1552.21" x2="952.63" y2="1632.7"/>
        <line class="cls-3" x1="998.22" y1="1543.43" x2="1011.62" y2="1622.73"/>
        <polyline class="cls-3" points="1139.78 1520.87 1139.93 1521.72 1153.87 1598.7"/>
        <line class="cls-3" x1="1235.17" y1="1507.11" x2="1249.21" y2="1584.61"/>
        <line class="cls-3" x1="1151.41" y1="1632.1" x2="1163.68" y2="1708.69"/>
        <line class="cls-3" x1="1252.59" y1="1615.02" x2="1264.64" y2="1692.71"/>
        <line class="cls-3" x1="1411.25" y1="1201.47" x2="1490.17" y2="1201.71"/>
        <line class="cls-3" x1="1410.7" y1="1295.85" x2="1489.88" y2="1296.1"/>
        <polyline class="cls-3" points="1409.63 1389.31 1410.15 1389.31 1489.59 1389.55"/>
        <line class="cls-3" x1="1591.46" y1="1478.67" x2="1590.7" y2="1522.79"/>
        <polyline class="cls-4" points="1472.49 1660.46 1473.73 1660.28 1473.73 1660.27 1555.34 1648.09 1540.41 1561.91"/>
        <line class="cls-4" x1="740.69" y1="972.07" x2="740.69" y2="976.59"/>
      </g>
    </g>
  </g>
</svg>