<?xml version="1.0" encoding="UTF-8"?>
<svg id="Layer_1" data-name="Layer 1" xmlns="http://www.w3.org/2000/svg" viewBox="460 220 1840 1640">
  <defs>
    <style>
      .cls-1 {
        fill: #006d99;
      }

      .cls-2, .cls-3, .cls-4, .cls-5, .cls-6, .cls-7, .cls-8 {
        isolation: isolate;
      }

      .cls-9 {
        fill: #8553cc;
      }

      .cls-3, .cls-4, .cls-5, .cls-6, .cls-7, .cls-8 {
        font-family: DMSans-Regular, 'DM Sans';
        font-size: 18px;
      }

      .cls-10 {
        fill: #fff;
      }

      .cls-11 {
        fill: #317700;
      }

      .cls-12 {
        stroke-width: .75px;
      }

      .cls-12, .cls-13 {
        fill: none;
        stroke: #000;
        stroke-miterlimit: 10;
      }

      .cls-13 {
        stroke-width: 2px;
      }

      .cls-14 {
        fill: #ff666a;
      }

      .cls-4 {
        letter-spacing: -.09em;
      }

      .cls-5 {
        letter-spacing: -.02em;
      }

      .cls-6 {
        letter-spacing: -.02em;
      }

      .cls-7 {
        letter-spacing: -.04em;
      }

      .cls-8 {
        letter-spacing: 0em;
      }
    </style>
  </defs>
  <g>
    <g>
      <path class="cls-10" d="M2236.22,1133.39v32.6h-8.32v6.66c-6.29-.18-6.84-6.66-6.84-6.66.37,5.55-7.4,6.85-7.4,6.85v-6.85l-4.39-.08h-.66l-28.62-.5.14-9.34h8.5c-.09-8.32-7.02-8.92-8.25-8.96,5.65,0,8.32-7.72,8.32-7.72h-8.5l.11-6.86,55.76.86h.15Z"/>
      <path class="cls-10" d="M855.25,1608.71l-11.58-77.86-15.73-105.76-14.29-96.07h0l-1.44-10.16c.34.03,6.45.61,9.75,3.98.81.83,1.45,1.83,1.8,3.03.05.2.1.41.14.62,0,0,0-.03,0-.08,0,.03,0,.05.02.08,0,0-.77-5.08,2.55-8.26,1.04-1,2.47-1.8,4.43-2.21l2.09,10.06h.01l4.48-.77,16.12,99.78,11.53,71.36,17.35,107.47,11.59,71.69h0l-7.38,1.19,1.19,6.5c-4.55.87-7.27-2.64-8.35-4.45-.13-.23-.48-.15-.52.11-.54,3.9-6.97,6.87-6.97,6.87l-1.16-6.7-5.03.75-10.59-71.17Z"/>
      <path class="cls-10" d="M1177.97,1750.64c.01.08.03.2.06.33,0-.11-.03-.22-.06-.33ZM1484.09,1123.52h0s285.69,3.17,285.69,3.17l54.77.61.52-59.83.79-91.65.62-71.33-54.24-.3-22.5-.12-240.4-1.34-25.25-.13-131.05-.73-7.66-2.33s5.81-12.27-4.07-17.21-9.3-17.73-9.3-17.73l.07-.26.41.12,2.03.76,33.22.4,138.46,1.66.37,6.95h0s352.41,3.82,352.41,3.82h0s73.95.78,73.95.78h0s-.04,4.36-.04,4.36h9.9s-2.26,8.55-9.03,8.19c0,0,8.91,1.27,9.03,7.72l-10.23-.08v6.53h-86.16l-3.27,221.75,89.43,1.39,102.7,1.59,22.72.35,57.13.89,65.2,1.01-.11,6.86h8.5s-2.67,7.72-8.32,7.72c1.23.04,8.16.64,8.25,8.96h-8.5l-.14,9.34-18.57-.33-27.67-.49-25.86-.46-47.75-.84-27.48-.49-25.83-.46-98.39-1.74-18.74-.33-39.02-.69-36.25-.64-20.29-.36-99.11-1.75-.22,11.35-5.76-.11v-10.01c-8.07,0-9.03,8.49-9.03,8.49.22-6.26-8.39-8.92-8.39-8.92v10.44l-6.49-.03h-.05l.05-11.77-39.68-.77-32.63-.64-32.36-.63-55.19-1.08-.43,62.26-.38,54.13-.67,97.27-1.39,199.44,20.11.82-.41,17.64,13.03-.18c-.07,5.65-5.06,8.07-6.56,8.68-.1.04-.06.16.04.17,6.65.32,6.72,7.52,6.72,7.52l-8.28-.09-.12,6.79-79.13,11.96.71,4.77-84.94,14.67-162.58,28.09,11.88,76.54-26.42,4.1,2.2,11.79c-8.06.65-10.17-6.38-10.62-8.51,1.03,6.76-8.64,11.19-8.64,11.19l-2.49-11.02-48.29,7.55-12.82-76.21-146.67,24.18-24.92,4.11-11.82,1.95v6.78c-6.17.47-7.57-4.42-7.77-5.29.89,5.98-6.97,6.65-6.97,6.65l-1.01-5.93-3.52.41-31.3,4.73-.15-1.04-5.83-39.19,5.03-.75,1.16,6.7s6.43-2.97,6.97-6.87c.04-.26.39-.34.52-.11,1.08,1.81,3.8,5.32,8.35,4.45l-1.19-6.5,7.38-1.19h0l1.24,7.69,71.25-11.52,133.53-21.58-3.51-23.29,94.89-15.54,4.14,23.12,139.91-25.18,42.88-6.69,30.77-4.81,38.72-6.05,1.95-27.25h27.45l.13-42.15.09-28.94.19-63.54.36-114.62.12-38.79.38-124.26h-78.91l-8.47-.02h-7.95s-7.12-.03-7.12-.03h-7.13s-7.14-.03-7.14-.03h-7.13s-8.31-.03-8.31-.03l-.17,20.25h53.42v20.89s-54.85-.32-54.85-.32v-9.6c-7.16.4-7.25,9.12-7.25,9.58-.01-7.54-7.35-9.58-7.35-9.58v9.09h-6.42v-40.4l-94.27-1.41-44.74-.67-94.57-1.42-94.06-1.41-47.01-.7-109.78-1.65v31.37l-33.45,17.24v42.09h-5.43l-.21,11.5s-9.37-3.15-9.51-12.6c0,0-2.06,11.61-10.81,11.82l.14-12.27-4.64-.09,1.1-64.35c-.16-8.66-9.42-8.74-9.42-8.74v-25.75h10.35c-.19-7.37-9.17-8.84-9.17-8.84,6.37.06,9.17-10.41,9.17-10.41h-9.17v-22.22h4.62l.82-76.7h2.91s-1.17-7.13-8.27-7.13c0,0,8.08-.61,8.27-6.95v-63.6h-.89l-24.82-.16v-6.03h-12.16c-1.16-11.29,12.16-11.02,12.16-11.02v-16.6c-9.22-.16-12.45-10.45-12.45-10.45h12.45v-18.6c-8.6,0-12.45-11.37-12.45-11.37h12.45v-10.18h23.02l9.62.06v12.78s8.83-3.15,8.89-12.41c0,0,.99,12.35,9.39,12.41v-12.84h5.49v21.41l.07,92.21v28.81l.03,27.02.02,34.5,33.39,17.54.63,31.28,58.88,1.21,47.87.98,51.93,1.06,19.33.4,58.52,1.2,20.98.43,209.34,4.04v9.92s7.78-2,7.93-10.22c0,0,1.03,9.78,7.25,9.78v-10l11.31.05v5.54l17.36.19,131.9,1.46Z"/>
      <path class="cls-11" d="M2206.06,981.17c8.2,1.04,9.66,11.09,9.66,11.09h20.5v141.13h-.15l-55.76-.86-65.2-1.01.1-139.76,90.64.62.21-11.21Z"/>
      <polygon class="cls-11" points="2209.27 1165.91 2209.23 1204.69 2161.38 1204.65 2161.42 1165.08 2179.99 1165.41 2208.61 1165.91 2209.27 1165.91"/>
      <polygon class="cls-11" points="2161.42 1165.08 2161.38 1204.65 2133.72 1204.62 2133.75 1164.59 2161.42 1165.08"/>
      <polygon class="cls-11" points="2133.75 1164.59 2133.72 1204.62 2108.32 1204.6 2107.89 1164.13 2133.75 1164.59"/>
      <polygon class="cls-11" points="2133.72 1204.62 2161.38 1204.65 2209.23 1204.69 2209.2 1241.98 2108.71 1241.98 2108.32 1204.6 2133.72 1204.62"/>
      <polygon class="cls-11" points="2115.21 991.76 2115.11 1131.52 2057.98 1130.63 2060.14 991.76 2060.14 991.38 2115.21 991.76"/>
      <polygon class="cls-11" points="2107.89 1164.13 2108.32 1204.6 2107.89 1204.6 2060.14 1204.14 2060.14 1163.29 2107.89 1164.13"/>
      <polygon class="cls-11" points="2006.82 1203.63 2032.66 1203.88 2060.14 1204.14 2107.89 1204.6 2108.32 1204.6 2108.71 1241.98 2108.71 1251.52 2022.16 1250.92 2022.16 1244.36 2006.5 1244.36 2006.54 1233.65 2006.66 1203.63 2006.82 1203.63"/>
      <polygon class="cls-11" points="2060.14 1163.29 2060.14 1204.14 2032.66 1203.88 2032.66 1162.91 2032.66 1162.8 2060.14 1163.29"/>
      <polygon class="cls-11" points="2060.14 991.38 2060.14 991.76 2057.98 1130.63 2035.26 1130.28 2035.26 1059.66 1932.56 1059.66 1932.56 990.63 1949.59 990.63 2060.14 991.38"/>
      <polygon class="cls-11" points="2035.26 1059.66 2035.26 1130.28 1932.56 1128.69 1932.56 1059.66 2035.26 1059.66"/>
      <polygon class="cls-11" points="2032.66 1162.8 2032.66 1162.91 2032.66 1203.88 2006.82 1203.63 2006.66 1203.63 2006.82 1162.91 2006.83 1162.34 2032.66 1162.8"/>
      <polygon class="cls-9" points="1908.44 1160.6 2006.83 1162.34 2006.82 1162.91 2006.66 1203.63 2006.54 1233.65 2006.05 1233.65 1888.76 1232.11 1888.76 1232.1 1889.7 1160.27 1908.44 1160.6"/>
      <path class="cls-9" d="M1814.14,1231.13l36.26.47,38.36.51,117.29,1.54h.49l-.04,10.71.55,15.3,10.05.84c0,7.7-10.22,7.2-10.22,7.2,7.87,0,10.22,10.05,10.22,10.05h-10.89v9.17l-313.59-4.57,1.01-52.81h.68s119.83,1.59,119.83,1.59Z"/>
      <path class="cls-11" d="M1959.5,918.25c.16,7.23-8.36,7.71-8.36,7.71,5.79.32,8.52,8.36,8.52,8.36h-9.96l-.11,56.31h-17.03v138.06l-89.43-1.39,3.27-221.75h104.26v12.7h8.84Z"/>
      <polygon class="cls-9" points="1888.76 1232.11 1850.4 1231.6 1850.4 1231.37 1850.68 1159.58 1889.7 1160.27 1888.76 1232.1 1888.76 1232.11"/>
      <polygon class="cls-11" points="1862.51 513.45 1862.49 552.75 1767.77 552.69 1767.77 513.45 1862.51 513.45"/>
      <polygon class="cls-11" points="1862.49 552.75 1860.07 777.27 1858.98 878.04 1506.57 874.23 1506.2 867.28 1506.2 867.27 1507.64 680.07 1508 633.22 1508.62 552.42 1524.63 552.54 1607.75 552.59 1767.77 552.69 1862.49 552.75"/>
      <polygon class="cls-11" points="1858.98 878.04 1858.98 878.05 1506.57 874.24 1506.57 874.23 1858.98 878.04"/>
      <polygon class="cls-9" points="1850.4 1231.6 1814.14 1231.13 1814.42 1159.58 1814.43 1158.94 1850.68 1159.58 1850.4 1231.37 1850.4 1231.6"/>
      <polygon class="cls-11" points="1825.86 975.82 1825.07 1067.47 1799.5 1067.25 1800.29 975.82 1800.29 975.81 1825.86 975.82"/>
      <polygon class="cls-9" points="1794.14 1158.58 1814.43 1158.94 1814.42 1159.58 1814.14 1231.13 1694.31 1229.54 1693.63 1229.54 1694.81 1168.18 1695.03 1156.83 1794.14 1158.58"/>
      <polygon class="cls-11" points="1800.29 975.81 1800.29 975.82 1799.5 1067.25 1771 1067.01 1770.44 1067 1771.45 975.8 1800.29 975.81"/>
      <polygon class="cls-11" points="1772.24 904.19 1826.48 904.49 1825.86 975.82 1800.29 975.81 1771.45 975.8 1772.23 905.55 1772.24 904.19"/>
      <polygon class="cls-11" points="1771 1067.01 1799.5 1067.25 1825.07 1067.47 1824.55 1127.3 1769.78 1126.69 1770.44 1067 1771 1067.01"/>
      <polygon class="cls-11" points="1749.74 904.07 1749.58 932.8 1509.34 931.26 1509.34 902.74 1509.34 902.73 1749.74 904.07"/>
      <polygon class="cls-9" points="1694.31 1229.54 1814.14 1231.13 1694.31 1229.55 1693.63 1229.54 1694.31 1229.54"/>
      <polygon class="cls-9" points="1665.14 1156.27 1665.09 1168.04 1664.89 1216.06 1625.21 1215.9 1625.46 1155.5 1665.14 1156.27"/>
      <polygon class="cls-9" points="1664.89 1216.06 1664.67 1270.2 1606.7 1269.96 1606.8 1245.81 1606.92 1215.83 1625.21 1215.9 1664.89 1216.06"/>
      <polygon class="cls-9" points="1664.67 1270.2 1664.62 1282.4 1542.39 1281.3 1541.75 1367.09 1503.8 1366.81 1504.47 1269.54 1545.31 1269.71 1606.7 1269.96 1664.67 1270.2"/>
      <path class="cls-11" d="M1875.74,491.35c.01.07.09.09.12.02.41-1.25,2.27-5.77,7.69-5.87v6.88l82.17-.07v13.53h7.73s-.21,8.09-5.73,8.36c-.05,0-.06.07-.02.08,1.14.33,5.54,2.01,5.75,8.1l-7.91-.15-2.37,255.46h0s-.94,101.46-.94,101.46l-29.3-.32-73.95-.79,1.09-100.77,2.42-224.52.02-39.3h-94.74v39.24l-160.02-.1.03-61.76v-17.24h16.36v-5.71s7.82-.15,8.37,5.54c.01.07.1.1.14.03.56-1.18,3.31-6.14,9.57-5.57v6.3h20.83v-6.34s8.67.66,9.03,5.39c0,.04.05.06.06,0,.27-1.16,1.72-5.44,8.83-5.4v6.57l19.7.25v-6.82s8.13,1.34,8.72,5.7c.02.09.12.11.15.03.4-1.25,2.16-4.87,8.98-5.14v6.14l19.97.09v-6.79s8.79,1.51,9.63,6.08c.01.07.1.07.11.01.29-1.38,1.77-5.87,8.87-6.12v7.41l16-.09v16.56h94.18v-6.13s7.97,1.11,8.46,5.77Z"/>
      <polygon class="cls-11" points="1607.78 490.83 1607.75 552.59 1524.63 552.54 1524.63 490.83 1607.78 490.83"/>
      <polygon class="cls-1" points="1606.92 1215.83 1592.58 1215.77 1592.83 1154.86 1625.46 1155.5 1625.21 1215.9 1606.92 1215.83"/>
      <polygon class="cls-9" points="1606.92 1215.83 1606.8 1245.81 1575.28 1245.81 1575.28 1215.7 1592.58 1215.77 1606.92 1215.83"/>
      <polygon class="cls-9" points="1606.8 1245.81 1606.7 1269.96 1545.31 1269.71 1545.31 1269.54 1545.41 1245.81 1575.28 1245.81 1606.8 1245.81"/>
      <polygon class="cls-1" points="1592.83 1154.86 1592.58 1215.77 1575.28 1215.7 1560.22 1215.64 1560.22 1215.63 1560.47 1154.23 1592.83 1154.86"/>
      <polygon class="cls-9" points="1575.28 1215.7 1575.28 1245.81 1545.41 1245.81 1545.31 1216.06 1545.31 1215.58 1560.22 1215.64 1575.28 1215.7"/>
      <polygon class="cls-1" points="1560.22 1215.63 1560.22 1215.64 1545.31 1215.58 1504.85 1215.41 1505.28 1153.15 1560.47 1154.23 1560.22 1215.63"/>
      <polygon class="cls-9" points="1545.31 1269.54 1545.31 1269.71 1504.47 1269.54 1504.85 1215.41 1545.31 1215.58 1545.31 1216.06 1545.41 1245.81 1545.31 1269.54"/>
      <polygon class="cls-9" points="1541.75 1367.09 1540.26 1567.8 1522.52 1567.07 1502.41 1566.25 1503.8 1366.81 1541.75 1367.09"/>
      <polygon class="cls-11" points="1509.34 902.73 1509.34 902.74 1509.34 931.26 1749.58 932.8 1749.74 904.07 1772.24 904.19 1772.23 905.55 1771.45 975.8 1770.44 1067 1769.78 1126.69 1484.09 1123.53 1484.09 1123.52 1484.09 902.6 1509.34 902.73"/>
      <polygon class="cls-14" points="1508 633.22 1507.64 680.07 1473.5 679.81 1473.5 651.64 1473.5 632.96 1508 633.22"/>
      <polygon class="cls-14" points="1507.64 680.07 1506.2 867.27 1367.74 865.61 1374.8 840.51 1383.74 808.66 1397.65 759.17 1404.65 734.22 1411.5 709.85 1379.96 697.94 1386.68 674.58 1418.33 683.69 1419.65 678.92 1457.29 679.15 1457.29 651.64 1473.5 651.64 1473.5 679.81 1507.64 680.07"/>
      <polygon class="cls-14" points="1506.2 867.27 1506.2 867.28 1367.74 865.62 1367.74 865.61 1506.2 867.27"/>
      <polygon class="cls-11" points="1484.09 902.6 1484.09 1123.52 1352.19 1122.06 1353.04 901.87 1484.09 902.6"/>
      <polygon class="cls-1" points="1478.56 1152.21 1478.18 1276.47 1454.18 1276.4 1428.22 1276.32 1426.37 1276.31 1399.17 1276.23 1399.65 1193.24 1399.65 1191.97 1399.65 1172.35 1399.65 1152.21 1478.56 1152.21"/>
      <polygon class="cls-1" points="1478.18 1276.47 1478.06 1315.26 1454.06 1315.19 1454.18 1276.47 1454.18 1276.4 1478.18 1276.47"/>
      <polygon class="cls-1" points="1478.06 1315.26 1477.7 1429.88 1398.28 1429.64 1398.95 1315.02 1428.1 1315.11 1454.06 1315.19 1478.06 1315.26"/>
      <polygon class="cls-1" points="1477.7 1429.88 1477.51 1493.42 1397.91 1493.17 1398.28 1429.64 1477.7 1429.88"/>
      <polygon class="cls-1" points="1477.51 1493.42 1477.42 1522.36 1397.73 1522.11 1397.91 1493.17 1477.51 1493.42"/>
      <polygon class="cls-14" points="1473.5 632.96 1473.5 651.64 1457.29 651.64 1427.2 651.64 1432.46 632.64 1473.5 632.96"/>
      <polygon class="cls-1" points="1448.52 1624.33 1460.59 1705.19 1377.25 1718.12 1363.58 1639 1448.52 1624.33"/>
      <polygon class="cls-14" points="1457.29 651.64 1457.29 679.15 1419.65 678.92 1427.2 651.64 1457.29 651.64"/>
      <polygon class="cls-1" points="1454.18 1276.4 1454.18 1276.47 1454.06 1315.19 1428.1 1315.11 1428.22 1276.32 1454.18 1276.4"/>
      <polygon class="cls-1" points="1428.22 1276.32 1428.1 1315.11 1398.95 1315.02 1399.17 1276.23 1426.37 1276.31 1428.22 1276.32"/>
      <path class="cls-14" d="M1473.5,632.96l-41.04-.32-5.26,19-7.55,27.28-1.32,4.77-31.65-9.11,34.98-121.58h60.07v-10.39s9.37,1.87,9.74,8.99c0,0,.94-8.43,8.81-8.99v9.74l8.34.07-.62,80.8-34.5-.26Z"/>
      <polygon class="cls-14" points="1411.5 709.85 1404.65 734.22 1372.87 722.58 1379.96 697.94 1411.5 709.85"/>
      <polygon class="cls-14" points="1404.65 734.22 1397.65 759.17 1397.64 759.17 1365.71 747.45 1372.87 722.58 1404.65 734.22"/>
      <polygon class="cls-10" points="1399.65 1152.21 1399.65 1172.35 1390.92 1172.35 1391.18 1152.43 1391.18 1152.19 1399.65 1152.21"/>
      <polygon class="cls-1" points="1399.64 1193.24 1399.65 1191.97 1399.65 1193.24 1399.17 1276.23 1399.16 1276.23 1399.64 1193.24"/>
      <polygon class="cls-1" points="1399.17 1276.23 1398.95 1315.02 1398.94 1315.02 1399.16 1276.23 1399.17 1276.23"/>
      <polygon class="cls-1" points="1398.95 1315.02 1398.28 1429.64 1398.27 1429.64 1398.94 1315.02 1398.95 1315.02"/>
      <polygon class="cls-1" points="1398.28 1429.64 1397.91 1493.17 1397.9 1493.17 1398.27 1429.64 1398.28 1429.64"/>
      <polygon class="cls-1" points="1397.91 1493.17 1397.73 1522.11 1397.9 1493.17 1397.91 1493.17"/>
      <polygon class="cls-1" points="1397.73 1522.11 1477.42 1522.36 1477.29 1564.51 1449.84 1564.51 1447.89 1591.76 1409.17 1597.81 1397.72 1524.49 1397.73 1524.49 1397.73 1522.11"/>
      <polygon class="cls-1" points="1397.73 1522.11 1397.73 1524.49 1397.72 1524.49 1397.73 1522.11"/>
      <polygon class="cls-14" points="1397.64 759.17 1397.65 759.17 1383.74 808.66 1351.25 797.73 1365.71 747.45 1397.64 759.17"/>
      <polygon class="cls-10" points="1391.18 1152.19 1391.18 1152.43 1390.92 1172.35 1382.98 1172.35 1382.98 1171.52 1383.23 1152.18 1391.18 1152.19"/>
      <polygon class="cls-10" points="1389.55 1545.83 1390.57 1552.34 1371.86 1555.94 1371.76 1555.95 1370.83 1549.43 1389.46 1545.84 1389.55 1545.83"/>
      <polygon class="cls-10" points="1387.52 1533 1388.53 1539.42 1370.08 1542.97 1369.91 1542.99 1368.99 1536.48 1387.52 1533"/>
      <polygon class="cls-14" points="1383.74 808.66 1374.8 840.51 1342.32 828.76 1351.25 797.73 1383.74 808.66"/>
      <polygon class="cls-10" points="1383.23 1152.18 1382.98 1171.52 1382.98 1172.35 1375.85 1172.35 1375.85 1172.04 1376.11 1152.16 1383.23 1152.18"/>
      <polygon class="cls-1" points="1363.58 1639 1377.25 1718.12 1212.88 1743.63 1201 1667.09 1363.58 1639"/>
      <polygon class="cls-10" points="1376.94 1588.26 1395.68 1584.65 1396.78 1591.64 1377.32 1595.04 1376.37 1588.34 1376.94 1588.26"/>
      <polygon class="cls-10" points="1376.11 1152.16 1375.85 1172.04 1375.85 1172.35 1368.73 1172.35 1368.98 1153.15 1368.98 1152.15 1376.11 1152.16"/>
      <polygon class="cls-10" points="1376.07 1581.97 1394.69 1578.39 1395.68 1584.65 1376.94 1588.26 1376.37 1588.34 1375.47 1582.05 1376.07 1581.97"/>
      <path class="cls-10" d="M1390.57,1552.34l-1.02-6.51-1.02-6.41-1.01-6.42-18.53,3.48-.89-6.23-1.73-9.9s7.88.82,9.53,8.85c-.08-.6-.86-6.67,2.58-10.06.89-.88,2.06-1.59,3.61-1.97l2,9.72h.01l13.62-2.4,11.45,73.32-30.77,4.81-1.08-7.58,19.46-3.4-1.1-6.99-.99-6.26-1.06-6.7-1.03-6.54-1.01-6.34-1.02-6.47Z"/>
      <polygon class="cls-10" points="1375.36 1575.21 1393.63 1571.69 1394.69 1578.39 1376.07 1581.97 1375.47 1582.05 1374.52 1575.33 1375.36 1575.21"/>
      <polygon class="cls-10" points="1373.96 1568.74 1392.6 1565.15 1393.63 1571.69 1375.36 1575.21 1374.52 1575.33 1373.59 1568.79 1373.96 1568.74"/>
      <polygon class="cls-10" points="1372.84 1562.42 1391.59 1558.81 1392.6 1565.15 1373.96 1568.74 1373.59 1568.79 1372.68 1562.44 1372.84 1562.42"/>
      <polygon class="cls-10" points="1371.86 1555.94 1390.57 1552.34 1391.59 1558.81 1372.84 1562.42 1372.68 1562.44 1371.76 1555.95 1371.86 1555.94"/>
      <polygon class="cls-10" points="1370.08 1542.97 1388.53 1539.42 1389.55 1545.83 1389.46 1545.84 1370.83 1549.43 1369.91 1542.99 1370.08 1542.97"/>
      <polygon class="cls-1" points="1370.83 1549.43 1371.76 1555.95 1372.68 1562.44 1373.59 1568.79 1374.52 1575.33 1375.47 1582.05 1376.37 1588.34 1377.32 1595.04 1378.4 1602.62 1335.52 1609.31 1323.78 1534.18 1320.24 1508.61 1360.73 1501.86 1365.56 1530.62 1368.1 1530.25 1368.99 1536.48 1369.91 1542.99 1370.83 1549.43"/>
      <polygon class="cls-10" points="1368.98 1152.15 1368.98 1153.15 1368.73 1172.35 1361.59 1172.35 1361.84 1152.43 1361.84 1152.13 1368.98 1152.15"/>
      <polygon class="cls-10" points="1361.84 1152.13 1361.84 1152.43 1361.59 1172.35 1354.45 1172.35 1354.45 1172.04 1354.71 1152.12 1361.84 1152.13"/>
      <path class="cls-14" d="M1360.75,677.42c.12.04.25.09.38.13-.13-.04-.26-.09-.38-.13Z"/>
      <polygon class="cls-10" points="1354.71 1152.12 1354.45 1172.04 1354.45 1172.35 1346.23 1172.35 1346.4 1152.1 1354.71 1152.12"/>
      <path class="cls-14" d="M1360.75,677.42c.12.04.25.09.38.13-.13-.04-.26-.09-.38-.13ZM1383.1,606.59c1.25.78,6.38,4.47,3.81,10.77l-7.58-2.04-14.71,50.86,9.38,3.09s-4.86,11.03-12.03,8.57c.44.22,8.65,4.47,5.96,13.15l-10.49-3.49-27.48,97.51s7.67,5.29,5.77,12.53l-9.29-3.58-18.69,65-82.31-25.28,9.2-33.83,73.83-235.75,76.58,25.73,3.29,1.1-2.24,6.33,6.79,2.46s-3.8,8.17-9.75,6.79c-.05-.02-.09.05-.04.08Z"/>
      <polygon class="cls-1" points="1323.78 1534.18 1335.52 1609.31 1195.61 1634.49 1191.47 1611.37 1096.58 1626.91 1100.09 1650.2 966.56 1671.78 955.36 1592.86 1001.89 1585.8 1323.78 1534.18"/>
      <polygon class="cls-14" points="1332.08 864.34 1342.32 828.76 1374.8 840.51 1367.74 865.61 1367.74 865.62 1334.52 865.22 1332.49 864.46 1332.08 864.34"/>
      <polygon class="cls-14" points="1229.51 1246.56 1229.51 1263.24 1229.5 1263.98 1182.96 1263.24 1183.24 1245.83 1229.51 1246.56"/>
      <polygon class="cls-14" points="1229.51 1217.58 1229.51 1246.56 1183.24 1245.83 1183.7 1216.85 1229.51 1217.58"/>
      <polygon class="cls-14" points="1229.51 1150.6 1229.51 1217.58 1183.7 1216.85 1184.77 1149.93 1229.51 1150.6"/>
      <polygon class="cls-14" points="1229.51 1263.24 1229.51 1246.56 1229.51 1217.58 1229.51 1150.6 1323.78 1152.01 1323.78 1192.41 1323.78 1265.48 1229.5 1263.98 1229.51 1263.24"/>
      <path class="cls-10" d="M1228.79,803.58l1.17-4.79,4.68,1.06-9.2,33.83,82.31,25.28,18.69-65,9.29,3.58c1.9-7.24-5.77-12.53-5.77-12.53l27.48-97.51,10.49,3.49c2.69-8.68-5.52-12.93-5.96-13.15,7.17,2.46,12.03-8.57,12.03-8.57l-9.38-3.09,14.71-50.86,7.58,2.04c2.57-6.3-2.56-9.99-3.81-10.77-.05-.03-.01-.1.04-.08,5.95,1.38,9.75-6.79,9.75-6.79l-6.79-2.46,2.24-6.33-3.29-1.1,4.66-11.27-14.47-5.25s6.09-8.42,12.75-5.82c-.94-.45-9.36-4.68-7.14-11.18l13.38,3.98,2.13-7.54,27.35.25h-2.05l-34.98,121.58-6.72,23.36-7.09,24.64-7.16,24.87-14.46,50.28-8.93,31.03-10.24,35.58-.07.26s-.58,12.79,9.3,17.73,4.07,17.21,4.07,17.21l-28.77-8.75s4.76-10.7-5.09-15.46l-3.91,12.57-114.97-35.66,16.54-57.84,7.22,1.36-1.2,4.7c3.65,1.09,7.01-2.52,7.64-3.25.04-.05.12,0,.12.05.52,4.81,5.83,6.32,5.83,6.32Z"/>
      <path class="cls-14" d="M1285.72,529.78s6.74,3.61,4.85,10.36c-.03.09.07.16.14.09,1.1-1.12,5.74-5.29,11.82-2.36l-4.68,7.77,16.61,7.16-5.99,11.3-73.83,235.75-4.68-1.06-1.17,4.79s-5.31-1.51-5.83-6.32c0-.06-.08-.1-.12-.05-.63.73-3.99,4.34-7.64,3.25l1.2-4.7-7.22-1.36-44.6-9.74v7.65l-79.9-15.86v9.63l-81.59-15.58v-86.93l-15.7-4.83,9.42-31.42,10.15,1.69,1.83-8.6s8,2.28,6.86,9.27c0,0,1.9-7.37,10.03-5.72l-1.65,7.88,5.34,1.27,6.97-27.07-17.19-4.03-2.12,9.13s-8.49-2.34-6.16-12.74l-5.73-1.7,12.74-41.21,29.92,10.02,9.34-26.96-5.73-2.12-3.4,8.49s-8.45-2.11-5.75-11.19c0,0,.01-.03.01-.04-.08.16-.81,1.53-2.18,2.87-1.98,1.91-5.27,3.73-9.89,1.78l3.18-7.85h-.01l-10.39-3.61,10.39-27.77,2.37-6.32.94-2.53h19.61l43.89-68.01,73.07,32.17-3.74,4.48,75.81,34.92-3.24,4.99,38.65,18.2,4.99-7.23Z"/>
      <polygon class="cls-14" points="1184.77 1149.93 1183.7 1216.85 1183.24 1245.83 1182.96 1263.24 1090.2 1261.76 1090.2 1148.51 1184.77 1149.93"/>
      <path class="cls-14" d="M1125.51,1025.01l-25.85,41.79c-5.49,6.33,0,14.99,0,14.99l-.66,30.97-20.98-.43.67-32.62-59.19-1.09v32.51l-19.33-.4.66-32.11c4.4-6.73.41-12.64.41-12.64l-26.8-44.54,39.72-21.99,71.48,1.51,39.87,24.05Z"/>
      <polygon class="cls-1" points="1105.8 1682.52 1118.62 1758.73 972.35 1783.81 959.13 1706.71 959.13 1706.7 1105.8 1682.52"/>
      <polygon class="cls-14" points="1078.69 1079.71 1078.02 1112.33 1019.5 1111.13 1019.5 1078.62 1078.69 1079.71"/>
      <path class="cls-10" d="M1040.09,556.56c1.37-1.34,2.1-2.71,2.18-2.87,0,.01-.01.03-.01.04-.15.29-.88,1.58-2.17,2.83Z"/>
      <polygon class="cls-14" points="1036.68 510.26 1035.74 512.79 1033.37 519.11 1033.36 519.11 1035.73 512.79 1036.67 510.26 1036.68 510.26"/>
      <polygon class="cls-14" points="1033.38 550.49 1030.2 558.34 1030.19 558.34 1033.37 550.49 1033.38 550.49"/>
      <polygon class="cls-14" points="1033.36 519.11 1033.37 519.11 1022.98 546.88 1022.97 546.88 1033.36 519.11"/>
      <path class="cls-10" d="M1032.07,472.99l-.32.32c.11-.12.21-.23.32-.32Z"/>
      <path class="cls-10" d="M1030.07,475.76c.48-.97,1.05-1.78,1.68-2.45-.62.68-1.19,1.49-1.67,2.45h-.01Z"/>
      <polygon class="cls-10" points="1024.69 463.7 1024.69 463.71 1020.95 473.29 1020.94 473.29 1024.68 463.7 1024.69 463.7"/>
      <path class="cls-10" d="M1010.35,465.99c.11-.13.23-.24.35-.35-.12.11-.24.23-.35.35Z"/>
      <path class="cls-10" d="M1008.42,468.66c.58-1.06,1.23-1.94,1.93-2.67-.69.74-1.34,1.62-1.92,2.67h-.01Z"/>
      <polygon class="cls-10" points="1003.65 456.21 999.62 465.77 999.61 465.77 1003.64 456.21 1003.65 456.21"/>
      <polygon class="cls-1" points="985.18 1477.06 1001.89 1585.8 955.36 1592.86 882.48 1603.92 865.13 1496.45 985.18 1477.06"/>
      <polygon class="cls-14" points="1000.83 1078.62 1000.17 1110.73 948.24 1109.67 948.24 1077.32 1000.83 1078.62"/>
      <path class="cls-10" d="M1031.08,502.54c-5.81-1.21-10.24,3.47-11.07,4.41-.03.04-.06,0-.06-.05,1.86-5.38-5.76-10.56-5.76-10.56l-3.01,8.11-4.19-1.42,2.85-8c-5.77-2.41-10.06,3.47-10.69,4.4-.01.02-.03,0-.03-.03,2.05-6.57-6.38-11.17-6.38-11.17l-2.93,8.54-9.57-3.46,9.07-31.36,10.3,3.82h0l4.03-9.56c.77.39,1.43.86,1.99,1.4,3.69,3.54,2.92,9.7,2.7,11.03,0,.02.01.04.02.04.02.01.05.01.06-.02h.01c.58-1.05,1.23-1.93,1.92-2.67.11-.12.23-.24.35-.35,4.07-3.97,9.36-3.26,9.66-3.21l-3.39,9.37h.01l3.96,1.49h0l3.74-9.58c.14.09.28.18.41.27.69.46,1.28.96,1.8,1.5.2.21.4.43.58.64.36.44.67.88.94,1.33.8,1.35,1.22,2.74,1.44,4,.32,1.99.12,3.65.05,4.24,0,.01,0,.02.01.03.03.04.12.08.15.04h.01c.48-.96,1.05-1.77,1.67-2.45l.32-.32c4-3.92,10.06-3.03,10.37-2.98l-3.59,9.72h.01l8.18,2.83-10.37,27.7-.94,2.53-7.45-2.08,2.8-8.17Z"/>
      <polygon class="cls-14" points="996.14 1147.1 995.5 1187.1 948.49 1186.35 949.13 1146.4 996.14 1147.1"/>
      <polygon class="cls-14" points="995.5 1187.1 996.14 1147.1 1090.2 1148.51 1090.2 1261.76 994.34 1260.23 995.07 1214.29 995.5 1187.1"/>
      <polygon class="cls-14" points="995.5 1187.1 995.07 1214.29 948.23 1213.55 948.06 1213.55 948.49 1186.35 995.5 1187.1"/>
      <polygon class="cls-10" points="989.31 461.95 980.24 493.31 980.23 493.31 989.3 461.95 989.31 461.95"/>
      <polygon class="cls-1" points="974.2 1405.61 985.18 1477.06 865.13 1496.45 853.6 1425.09 974.2 1405.61"/>
      <polygon class="cls-10" points="980.24 493.31 974.39 513.55 974.38 513.55 980.23 493.31 980.24 493.31"/>
      <path class="cls-10" d="M948.23,513.55h26.16l5.85-20.24,9.57,3.46,2.93-8.54s8.43,4.6,6.38,11.17c0,.03.02.05.03.03.63-.93,4.92-6.81,10.69-4.4l-2.85,8,4.19,1.42,3.01-8.11s7.62,5.18,5.76,10.56c0,.05.03.09.06.05.83-.94,5.26-5.62,11.07-4.41l-2.8,8.17,7.45,2.08-2.37,6.32-10.39,27.77h.01l10.39,3.61-3.18,7.85h0c4.62,1.95,7.91.13,9.89-1.78,1.29-1.25,2.02-2.54,2.17-2.83-2.7,9.08,5.75,11.19,5.75,11.19l3.4-8.49,5.73,2.12-9.34,26.96-29.92-10.02-12.74,41.21,5.73,1.7c-2.33,10.4,6.16,12.74,6.16,12.74l2.12-9.13,17.19,4.03-6.97,27.07-5.34-1.27,1.65-7.88c-8.13-1.65-10.03,5.72-10.03,5.72,1.14-6.99-6.86-9.27-6.86-9.27l-1.83,8.6-10.15-1.69-9.42,31.42,15.7,4.83v60.3h-23.12v-9.7c-7.98.17-9.36,9.7-9.36,9.7-.18-7.11-8.32-9.7-8.32-9.7v9l-58.19-.34.1-18.11.12-20.26.03-4.73h11.17c.13-7.41-11.07-8.61-11.07-8.61,9.06-.53,11.07-8.67,11.07-8.67l-11.07-.06.04-6.39.14-24.06-26.08-.1h-1v-49.12h-10.9c.43-8.41,9.44-9.36,9.44-9.36-8.92-.34-9.87-8.92-9.87-8.92h11.33v-15.97l70.67,1.81v-56.73h.01Z"/>
      <polygon class="cls-1" points="955.36 1592.86 966.56 1671.78 895.31 1683.3 894.07 1675.61 882.48 1603.92 955.36 1592.86"/>
      <polygon class="cls-1" points="959.13 1706.7 959.13 1706.71 972.35 1783.81 945.97 1788.33 943.63 1772.89 942.45 1765.1 941.42 1758.32 940.55 1752.59 939.65 1746.67 938.75 1740.72 937.88 1734.99 936.89 1728.51 935.89 1721.92 934.21 1710.81 959.13 1706.7"/>
      <polygon class="cls-14" points="949.13 1146.4 948.49 1186.35 948.06 1213.55 947.33 1259.48 883.6 1258.47 861.91 1258.47 839.35 1258.47 839.35 1176.12 839.35 1144.75 949.13 1146.4"/>
      <polygon class="cls-14" points="948.24 1077.32 948.24 1109.67 900.37 1108.69 901.03 1076.15 948.24 1077.32"/>
      <polygon class="cls-14" points="948.23 1213.55 995.07 1214.29 994.34 1260.23 947.33 1259.48 948.06 1213.55 948.23 1213.55"/>
      <path class="cls-14" d="M948.22,513.55v56.73l-70.67-1.81-52-1.33.91-35.32h-18.51l3.98-206.76.57-.81,58.69.55h0v-13.64c.13.01,1.55.09,3.38.68.35.12.71.25,1.08.41,1.5.62,3.14,1.59,4.53,3.1.18.19.35.39.52.59.16.21.32.43.48.65.31.45.61.94.87,1.46.93,1.85,1.53,4.19,1.54,7.15h64.62v188.35Z"/>
      <polygon class="cls-10" points="942.45 1765.1 943.63 1772.89 943.61 1772.89 921.6 1776.52 920.41 1768.46 941.82 1765.2 942.45 1765.1"/>
      <polygon class="cls-10" points="941.42 1758.32 942.45 1765.1 941.82 1765.2 920.41 1768.46 919.4 1761.66 941.1 1758.37 941.42 1758.32"/>
      <polygon class="cls-10" points="938.75 1740.72 939.65 1746.67 917.87 1749.97 917.68 1750 916.8 1744.05 938.26 1740.79 938.75 1740.72"/>
      <polygon class="cls-10" points="935.89 1721.92 936.89 1728.51 915.01 1731.83 914.99 1731.83 914.01 1725.24 935.89 1721.92"/>
      <path class="cls-10" d="M943.63,1772.89l2.34,15.44-12.42,2.13,1,8.31c-5.41.43-8.43-6.03-9.01-7.43.29,5.66-7.2,9.76-7.2,9.76l-.92-8.9-3.41.42-10.89-77.24,3.52-.41,1.01,5.93s7.86-.67,6.97-6.65c.2.87,1.6,5.76,7.77,5.29v-6.78l11.82-1.95,1.68,11.11-21.88,3.32.98,6.59.02.14.94,6.34.85,5.74.88,5.95.87,5.93.85,5.73,1.01,6.8,1.19,8.06,22.01-3.63h.02Z"/>
      <polygon class="cls-10" points="919.22 1755.83 940.55 1752.59 941.42 1758.32 941.1 1758.37 919.4 1761.66 918.55 1755.93 919.22 1755.83"/>
      <polygon class="cls-10" points="917.87 1749.97 939.65 1746.67 940.55 1752.59 919.22 1755.83 918.55 1755.93 917.68 1750 917.87 1749.97"/>
      <polygon class="cls-1" points="914.01 1792.62 917.33 1815.59 777.84 1838.28 761.36 1737.04 871.67 1719.07 871.82 1720.11 903.12 1715.38 914.01 1792.62"/>
      <polygon class="cls-10" points="916.38 1738.25 937.88 1734.99 938.75 1740.72 938.26 1740.79 916.8 1744.05 915.95 1738.31 916.38 1738.25"/>
      <polygon class="cls-10" points="915.01 1731.83 936.89 1728.51 937.88 1734.99 916.38 1738.25 915.95 1738.31 915.01 1731.97 914.99 1731.83 915.01 1731.83"/>
      <polygon class="cls-14" points="904.2 724.72 904.1 742.83 903.98 762.29 807.29 761.72 807.27 724.78 904.1 724.72 904.2 724.72"/>
      <polygon class="cls-14" points="903.98 762.29 903.84 786.46 851.99 786.15 850.21 786.14 807.31 785.89 807.29 761.72 903.98 762.29"/>
      <polygon class="cls-14" points="903.03 890.37 902.57 933.23 860.64 932.78 860.64 898.72 865.09 898.72 865.09 891.43 865.09 890.92 893.4 890.9 893.97 890.29 903.03 890.37"/>
      <polygon class="cls-14" points="902.57 933.23 902.02 984.26 860.64 983.81 860.64 932.78 902.57 933.23"/>
      <polygon class="cls-14" points="902.02 984.26 901.6 1023.45 860.64 1023.01 860.64 983.81 902.02 984.26"/>
      <polygon class="cls-14" points="901.6 1023.45 901.03 1076.15 900.37 1108.69 841.49 1107.48 840.86 1076.2 852.29 1074.82 852.29 1031.54 860.64 1023.01 901.6 1023.45"/>
      <path class="cls-14" d="M896.58,663.64v12.31l7.91.05-.04,6.39-.05,8.73-.05,8.61-.03,4.73-7.98-.05v11.79c-6.86,1.18-12.78-8.29-12.78-8.29v-14.2l-76.29-1.19h-.02v-8.05l76.31,1.19v-12.79s5.04-10.42,13.02-9.23Z"/>
      <path class="cls-14" d="M883.56,707.91s5.92,9.47,12.78,8.29v-11.79l7.98.05-.12,20.26h-.1l-96.83.06-.02-32.26h.02l76.29,1.19v14.2Z"/>
      <polygon class="cls-14" points="894.31 858.06 893.97 890.29 893.4 890.9 865.09 890.92 865.09 857.76 894.31 858.06"/>
      <polygon class="cls-10" points="883.6 1284.96 883.6 1291.7 882.97 1291.7 861.91 1291.7 861.91 1284.96 883.6 1284.96"/>
      <polygon class="cls-10" points="883.6 1258.47 883.6 1264.67 862.6 1264.67 861.91 1264.67 861.91 1258.47 883.6 1258.47"/>
      <polygon class="cls-10" points="883.6 1291.7 883.6 1298.45 861.91 1298.45 861.91 1291.7 882.97 1291.7 883.6 1291.7"/>
      <path class="cls-14" d="M881.19,316.59c.32.45.61.94.87,1.46-.26-.52-.56-1.01-.87-1.46Z"/>
      <path class="cls-14" d="M880.71,315.94c-.17-.2-.34-.4-.52-.59.17.18.35.38.52.59Z"/>
      <path class="cls-14" d="M877.55,651.84h1l26.08.1-.14,24.06-7.91-.05v-12.31c-7.98-1.19-13.02,9.23-13.02,9.23v12.79l-76.31-1.19-.02-32.63h70.32Z"/>
      <polygon class="cls-10" points="877.55 613.61 877.55 630.53 870.89 630.53 870.89 613.8 870.89 613.61 877.55 613.61"/>
      <path class="cls-14" d="M874.58,311.84c.35.12.71.25,1.08.41-.37-.16-.73-.29-1.08-.41Z"/>
      <polygon class="cls-1" points="871.67 1719.07 761.36 1737.04 743.18 1625.38 855.25 1608.71 865.84 1679.88 871.67 1719.07"/>
      <path class="cls-10" d="M784.64,603.05s8.71,2.64,8.77,9.67c0,0,.39-7.87,9.23-9.67v10.56h28.1v16.86l6.71.06h40.1v21.31h-70.32l.02,32.63v8.05l.02,32.26.02,36.94.02,24.17.02,33.89.02,31.72v3.21h-5.49v12.84c-8.4-.06-9.39-12.41-9.39-12.41-.06,9.26-8.89,12.41-8.89,12.41v-12.78l-9.62-.06.2-34.93.16-28.11.81-141.44.21-36.67h.02l9.28.05v-10.56Z"/>
      <polygon class="cls-10" points="870.89 613.61 870.89 613.8 870.89 630.53 865.96 630.53 865.96 613.98 865.96 613.61 870.89 613.61"/>
      <polygon class="cls-10" points="865.96 613.61 865.96 613.98 865.96 630.53 861.04 630.53 861.04 614.61 861.04 613.61 865.96 613.61"/>
      <polygon class="cls-1" points="852.45 1322.78 865.17 1320.63 958.71 1304.84 974.2 1405.61 853.6 1425.09 837.48 1325.31 837.87 1325.24 839.73 1324.93 852.45 1322.78"/>
      <polygon class="cls-10" points="861.9 1301.27 865.16 1320.56 858.99 1321.62 858.98 1321.59 855.7 1302.22 861.9 1301.27"/>
      <polygon class="cls-10" points="862.6 1264.67 883.6 1264.67 883.6 1271.63 862.22 1271.63 861.91 1271.63 861.91 1264.67 862.6 1264.67"/>
      <polygon class="cls-10" points="862.6 1278.59 883.6 1278.59 883.6 1284.96 861.91 1284.96 861.91 1278.59 862.6 1278.59"/>
      <polygon class="cls-10" points="861.91 1271.63 862.22 1271.63 883.6 1271.63 883.6 1278.59 862.6 1278.59 861.91 1278.59 861.91 1271.63"/>
      <path class="cls-10" d="M790.75,1234.35c.14,9.45,9.51,12.6,9.51,12.6l.21-11.5h5.43l.14,23.02h55.87v42.8h0l-6.2.95-6.56,1-6.48.98-6.26.96h-.01l3.34,19.76-1.86.32-.39.07-4.48.77-2.09-10.06h0c-1.96.41-3.39,1.21-4.43,2.21-3.07,2.92-2.66,7.47-2.57,8.17-.03-.18-.08-.36-.13-.53-.34-1.2-.98-2.2-1.8-3.03-3.3-3.37-9.41-3.95-9.75-3.98h-.01l1.44,10.16-57.99,9.07-.16-14.7h-10.23c.19-2.87,1.15-4.8,2.39-6.11.11-.12.23-.24.34-.34,2.34-2.19,5.42-2.39,6.21-2.4-7.51,0-8-8.21-8-8.21h11.14v-6.47h-10.88c.13-8.66,8.28-10.2,8.28-10.2-7.27.07-8.54-7.73-8.54-7.73h11.4v-2.78h-10.97s.2-35.15.2-35.15h28.43l.17-10.19,4.64.09-.14,12.27c8.75-.21,10.81-11.82,10.81-11.82Z"/>
      <polygon class="cls-10" points="861.9 1301.27 861.91 1301.27 861.91 1298.45 883.6 1298.45 883.6 1317.4 865.16 1320.56 861.9 1301.27"/>
      <polygon class="cls-10" points="861.04 613.61 861.04 614.61 861.04 630.53 856.32 630.53 856.32 614.43 856.32 613.61 861.04 613.61"/>
      <polygon class="cls-10" points="856.32 613.61 856.32 614.43 856.32 630.53 851.6 630.53 851.6 614.43 851.6 613.61 856.32 613.61"/>
      <polygon class="cls-1" points="843.67 1530.85 855.25 1608.71 743.18 1625.38 730.78 1549.24 843.67 1530.85"/>
      <polygon class="cls-10" points="849.15 1303.27 852.44 1322.74 845.98 1323.85 845.91 1323.42 842.66 1304.2 849.14 1303.22 849.15 1303.27"/>
      <polygon class="cls-14" points="851.99 786.15 903.84 786.46 903.42 858.26 894.31 858.06 865.09 857.76 865.09 890.92 865.09 891.43 865.09 898.72 860.64 898.72 860.64 932.78 860.64 983.81 860.64 1023.01 852.29 1031.54 852.29 1074.82 840.86 1076.2 807.47 1058.66 807.45 1024.16 807.43 997.14 845.7 997.12 845.7 968.33 807.42 968.33 807.36 876.12 807.35 854.71 807.35 851.5 850.21 851.5 850.21 819.78 850.21 786.17 850.21 786.14 851.99 786.15"/>
      <polygon class="cls-10" points="851.6 613.61 851.6 614.43 851.6 630.53 846.89 630.53 846.89 630.19 846.89 613.61 851.6 613.61"/>
      <polygon class="cls-14" points="850.21 786.17 850.21 819.78 807.35 819.78 807.33 819.78 807.31 785.89 850.21 786.14 850.21 786.17"/>
      <polygon class="cls-10" points="858.98 1321.59 858.99 1321.62 852.44 1322.74 849.15 1303.27 849.14 1303.22 855.7 1302.22 858.98 1321.59"/>
      <polygon class="cls-10" points="846.89 630.19 846.89 630.53 842.17 630.53 842.17 613.61 846.89 613.61 846.89 630.19"/>
      <polygon class="cls-10" points="845.91 1323.42 845.98 1323.85 839.74 1324.92 836.4 1305.16 842.66 1304.2 845.91 1323.42"/>
      <polygon class="cls-14" points="845.7 968.33 845.7 997.12 807.43 997.14 807.42 968.33 845.7 968.33"/>
      <polygon class="cls-1" points="827.94 1425.09 843.67 1530.85 730.78 1549.24 713.6 1443.71 827.94 1425.09"/>
      <rect class="cls-10" x="837.45" y="613.61" width="4.72" height="16.92"/>
      <polygon class="cls-10" points="836.4 1305.16 839.74 1324.92 839.73 1324.92 836.39 1305.16 836.4 1305.16"/>
      <polygon class="cls-14" points="839.35 1176.12 839.35 1258.47 806.04 1258.47 805.9 1235.45 805.9 1193.36 839.35 1176.12"/>
      <polygon class="cls-10" points="837.45 613.61 837.45 630.53 830.74 630.47 830.74 613.61 837.45 613.61"/>
      <path class="cls-10" d="M826.47,1318.23c-3.32,3.18-2.55,8.26-2.55,8.26-.01-.03-.01-.05-.02-.08h0c-.09-.71-.5-5.26,2.57-8.18Z"/>
      <path class="cls-10" d="M812.22,1318.86l1.44,10.16h0l-1.44-10.16h.01Z"/>
      <rect class="cls-14" x="796.9" y="312.81" width="15.37" height="0"/>
      <polygon class="cls-14" points="807.35 819.78 850.21 819.78 850.21 851.5 807.35 851.5 807.33 819.78 807.35 819.78"/>
      <path class="cls-10" d="M747.17,985.32v-46.36h3.77l24.82.16h.89v63.6c-.19,6.34-8.27,6.95-8.27,6.95,7.1,0,8.27,7.13,8.27,7.13h-47.86v-11.69h18.38v-19.79Z"/>
      <path class="cls-14" d="M775.44,1233.81l-.17,10.19h-48.8v-13.64l-105.13-.85v-66.81h25.03v24.48l94.58.92v-27.21l25.46.43.71-.6s9.26.08,9.42,8.74l-1.1,64.35Z"/>
      <polygon class="cls-14" points="725.08 610.62 775.36 610.62 775.34 613.56 775.13 650.23 741.84 650.04 741.84 634.88 725.08 634.88 725.08 610.62"/>
      <polygon class="cls-14" points="775.13 650.23 774.32 791.67 687.69 791.17 687.8 785.22 723.83 785.89 725.08 650.23 690.32 650.23 691.06 610.62 712.55 610.62 725.08 610.62 725.08 634.88 741.84 634.88 741.84 650.04 775.13 650.23"/>
      <polygon class="cls-14" points="774.32 791.67 774.16 819.78 687.69 819.28 687.16 819.27 687.69 791.17 774.32 791.67"/>
      <path class="cls-14" d="M621.34,1162.7v66.81l-2.69-.02v9.36s-11.11.66-11.33-9.36l-90.17-1.31,2.86-290.05,127.91.51-.61,154.02,80.69.15,40.25.07.05.62v22.22h9.17s-2.8,10.47-9.17,10.41c0,0,8.98,1.47,9.17,8.84h-10.35v25.75l-.71.6-25.46-.43v27.21l-94.58-.92v-24.48h-25.03Z"/>
      <path class="cls-10" d="M748.95,567.17c-.06,1.24-.13,8.32,6.53,8.32l.9-9.06.83,8.96s7.42-.86,7.42-8.85c0,0,1.1,8.38,8.27,8.44l.31-9.18,52.34,1.34,52,1.33v15.97h-11.33s.95,8.58,9.87,8.92c0,0-9.01.95-9.44,9.36h10.9v10.89h-74.91v-10.56c-8.84,1.8-9.23,9.67-9.23,9.67-.06-7.03-8.77-9.67-8.77-9.67v10.56l-9.28-.05h-.02l.02-2.94h-62.81v-6.2h-12.89c0-10.62,10.87-11.2,10.87-11.2-7.44.07-10.43-10.4-10.43-10.4h12.45c-9.61,0-12.09-10.67-12.09-10.67h11.91l.18-7,22.69.57,6.99.18-.35,9.02s6.75-2.66,7.07-7.75Z"/>
      <polygon class="cls-1" points="755.65 1338.09 755.66 1338.09 813.65 1329.02 827.94 1425.09 713.6 1443.71 713.59 1443.71 697.87 1347.13 755.65 1338.09"/>
      <rect class="cls-10" x="728.79" y="998.57" width="18.38" height="6.54"/>
      <polygon class="cls-10" points="747.17 972.03 747.17 978.69 729.78 978.69 728.79 978.69 728.79 972.03 747.17 972.03"/>
      <rect class="cls-10" x="728.79" y="965.37" width="18.38" height="6.66"/>
      <polygon class="cls-10" points="747.17 958.71 747.17 965.37 728.79 965.37 728.79 958.7 729.22 958.71 747.17 958.71"/>
      <polygon class="cls-10" points="747.17 938.96 747.17 945.39 747.16 945.39 728.93 945.39 728.79 938.96 747.17 938.96"/>
      <polygon class="cls-10" points="747.17 945.39 747.17 952.05 729.22 952.05 729.08 952.05 728.93 945.39 747.16 945.39 747.17 945.39"/>
      <polygon class="cls-10" points="746.84 1244 746.64 1279.14 726.47 1279.14 726.47 1244 746.84 1244"/>
      <polygon class="cls-14" points="735.25 498.37 735.25 565.15 735.24 565.72 735.24 565.15 735.25 498.37"/>
      <path class="cls-14" d="M748.95,567.17c-.32,5.09-7.07,7.75-7.07,7.75l.35-9.02-6.99-.18v-.57s.01-66.78.01-66.78l-144.13-1.34,1.77-189.94,185.78,4.76v-8.04s9.06.98,9.06,9c0,0,.87-8.78,9.17-9v9h0s15.37,0,15.37,0l.23,11.43-.57.81-3.98,206.76h18.51l-.91,35.32-52.34-1.34-.31,9.18c-7.17-.06-8.27-8.44-8.27-8.44,0,7.99-7.42,8.85-7.42,8.85l-.83-8.96-.9,9.06c-6.66,0-6.59-7.08-6.53-8.32Z"/>
      <polygon class="cls-14" points="735.24 565.72 712.55 565.15 590.52 562.06 591.12 497.03 735.25 498.37 735.24 565.15 735.24 565.72"/>
      <polygon class="cls-10" points="728.79 978.69 729.78 978.69 747.17 978.69 747.17 985.32 729.78 985.32 728.79 985.32 728.79 978.69"/>
      <polygon class="cls-10" points="728.79 985.32 729.78 985.32 747.17 985.32 747.17 991.94 729.35 991.94 728.79 991.94 728.79 985.32"/>
      <polygon class="cls-10" points="728.79 991.94 729.35 991.94 747.17 991.94 747.17 998.57 728.79 998.57 728.79 991.94"/>
      <polygon class="cls-10" points="729.22 952.05 747.17 952.05 747.17 958.71 729.22 958.7 729.08 952.05 729.22 952.05"/>
      <polygon class="cls-10" points="728.93 945.39 729.08 952.05 728.79 952.05 728.79 945.39 728.93 945.39"/>
      <polygon class="cls-10" points="729.22 958.71 728.79 958.7 728.79 952.05 729.08 952.05 729.22 958.7 747.17 958.71 729.22 958.71"/>
      <polygon class="cls-10" points="728.79 938.96 728.93 945.39 728.79 945.39 728.79 938.96"/>
      <polygon class="cls-14" points="728 1092.81 647.31 1092.66 647.92 938.64 728.79 938.96 728.79 945.39 728.79 952.05 728.79 958.7 728.79 965.37 728.79 972.03 728.79 978.69 728.79 985.32 728.79 991.94 728.79 998.57 728.79 1005.11 728.79 1016.8 728.14 1016.8 728 1092.77 728 1092.81"/>
      <polygon class="cls-14" points="728.79 1016.8 773.74 1016.8 772.92 1093.5 768.3 1093.5 768.25 1092.88 728 1092.81 728 1092.77 728.14 1016.8 728.79 1016.8"/>
      <polygon class="cls-14" points="725.08 650.23 723.83 785.89 687.8 785.22 690.32 650.23 725.08 650.23"/>
      <polygon class="cls-14" points="687.69 819.28 774.16 819.78 773.96 854.71 750.94 854.71 686.5 854.71 687.16 819.27 687.69 819.28"/>
    </g>
    <g>
      <path class="cls-13" d="M748.96,566.99s0,.07-.01.11v.07c-.06,1.24-.13,8.32,6.53,8.32l.9-9.06.83,8.96s7.42-.86,7.42-8.85c0,0,1.1,8.38,8.27,8.44l.31-9.18,52.34,1.34,52,1.33,70.67,1.81v-245.08h-64.62c-.01-2.96-.61-5.3-1.54-7.15-.26-.52-.56-1.01-.87-1.46-.16-.22-.32-.44-.48-.65-.17-.2-.34-.4-.52-.59-1.39-1.51-3.03-2.48-4.53-3.1-.37-.16-.73-.29-1.08-.41-1.83-.59-3.25-.67-3.38-.68h0v13.64l-58.69-.55-.23-11.43h-15.37v-9.01c-8.3.22-9.17,9-9.17,9,0-8.02-9.06-9-9.06-9v8.04l-185.78-4.76-1.77,189.94-.6,65.03,122.03,3.09,22.69.57,6.99.18-.35,9.02s6.75-2.66,7.07-7.75"/>
      <path class="cls-13" d="M712.55,565.15l-.18,7h-11.91s2.48,10.67,12.09,10.67h-12.45s2.99,10.47,10.43,10.4c0,0-10.87.58-10.87,11.2h12.89v6.2"/>
      <path class="cls-13" d="M877.55,613.61v-10.89h-10.9c.43-8.41,9.44-9.36,9.44-9.36-8.92-.34-9.87-8.92-9.87-8.92h11.33v-15.97"/>
      <line class="cls-13" x1="877.55" y1="651.84" x2="877.55" y2="630.53"/>
      <line class="cls-13" x1="877.55" y1="630.53" x2="877.55" y2="613.61"/>
      <path class="cls-13" d="M775.36,613.56l9.28.05v-10.56s8.71,2.64,8.77,9.67c0,0,.39-7.87,9.23-9.67v10.56h74.91"/>
      <polygon class="cls-13" points="712.55 610.62 691.06 610.62 690.32 650.23 687.8 785.22 687.69 791.17 687.16 819.27 686.5 854.71 750.94 854.71 773.96 854.71 774.16 819.78 774.32 791.67 775.13 650.23 775.34 613.56 775.36 610.62 725.08 610.62 712.55 610.62"/>
      <path class="cls-13" d="M904.49,676l.14-24.06-26.08-.1h-71.32l.02,32.63v8.05l.02,32.26.02,36.94.02,24.17.02,33.89.02,31.72v24.62l.07,92.21v28.81l.03,27.02.02,34.5,33.39,17.54.63,31.28,58.88,1.21,47.87.98,51.93,1.06,19.33.4,58.52,1.2,20.98.43.66-30.97s-5.49-8.66,0-14.99l25.85-41.79-39.87-24.05-71.48-1.51-39.72,21.99,26.8,44.54s3.99,5.91-.41,12.64l-52.59-1.3-47.21-1.17.57-52.7.42-39.19.55-51.03.46-42.86-9.06-.08.34-32.23,9.11.2.42-71.8.14-24.17.12-19.46.1-18.11.12-20.26.03-4.73.05-8.61.05-8.73.04-6.39Z"/>
      <path class="cls-13" d="M773.96,854.71l9.62.06v12.78s8.83-3.15,8.89-12.41c0,0,.99,12.35,9.39,12.41v-12.84h5.49"/>
      <path class="cls-13" d="M750.94,854.71v10.18h-12.45s3.85,11.37,12.45,11.37v18.6h-12.45s3.23,10.29,12.45,10.45v16.6s-13.32-.27-12.16,11.02h12.16v6.03h-22.15v77.84h47.86s-1.17-7.13-8.27-7.13c0,0,8.08-.61,8.27-6.95l-8.64.07"/>
      <line class="cls-13" x1="750.94" y1="938.96" x2="775.76" y2="939.12"/>
      <polyline class="cls-13" points="776.65 1002.72 776.65 939.12 776.65 938.13"/>
      <polyline class="cls-13" points="830.74 613.61 830.74 630.47 837.45 630.53 842.17 630.53 846.89 630.53 851.6 630.53 856.32 630.53 861.04 630.53 865.96 630.53 870.89 630.53 877.55 630.53"/>
      <line class="cls-13" x1="837.45" y1="613.61" x2="837.45" y2="630.53"/>
      <line class="cls-13" x1="842.17" y1="613.61" x2="842.17" y2="630.53"/>
      <polyline class="cls-13" points="846.89 613.27 846.89 613.61 846.89 630.19"/>
      <polyline class="cls-13" points="851.6 614.43 851.6 630.53 851.6 631.35"/>
      <polyline class="cls-13" points="856.32 614.43 856.32 630.53 856.32 631.35"/>
      <polyline class="cls-13" points="861.04 614.61 861.04 630.53 861.04 631.53"/>
      <polyline class="cls-13" points="865.96 613.98 865.96 630.53 865.96 630.9"/>
      <polyline class="cls-13" points="870.89 613.8 870.89 630.53 870.89 630.72"/>
      <polyline class="cls-13" points="747.17 938.96 747.17 945.39 747.17 952.05 747.17 958.71 747.17 965.37 747.17 972.03 747.17 978.69 747.17 985.32 747.17 991.94 747.17 998.57 747.17 1005.11 728.79 1005.11"/>
      <line class="cls-13" x1="728.79" y1="998.57" x2="747.17" y2="998.57"/>
      <polyline class="cls-13" points="729.35 991.94 747.17 991.94 747.73 991.94"/>
      <polyline class="cls-13" points="729.78 985.32 747.17 985.32 748.16 985.32"/>
      <polyline class="cls-13" points="729.78 978.69 747.17 978.69 748.16 978.69"/>
      <line class="cls-13" x1="728.79" y1="972.03" x2="747.17" y2="972.03"/>
      <line class="cls-13" x1="728.79" y1="965.37" x2="747.17" y2="965.37"/>
      <path class="cls-13" d="M726.47,1244v-13.64l-105.13-.85-2.69-.02v9.36s-11.11.66-11.33-9.36l-90.17-1.31,2.86-290.05,127.91.51,80.87.32.14,6.43.15,6.66.14,6.65h17.95s.42,0,.42,0"/>
      <path class="cls-13" d="M773.74,1016.8l-.82,76.7h-4.62v22.22h9.17s-2.8,10.47-9.17,10.41c0,0,8.98,1.47,9.17,8.84h-10.35v25.75s9.26.08,9.42,8.74l-1.1,64.35-.17,10.19h-28.43"/>
      <polyline class="cls-13" points="729.22 952.05 747.17 952.05 747.59 952.05"/>
      <polyline class="cls-13" points="728.78 945.39 728.79 945.39 728.93 945.39 747.16 945.39"/>
      <polygon class="cls-13" points="726.47 1244 726.47 1279.14 746.64 1279.14 746.84 1244 726.47 1244"/>
      <path class="cls-13" d="M1361.97,677.84c.44.22,8.65,4.47,5.96,13.15l-10.49-3.49-27.48,97.51s7.67,5.29,5.77,12.53l-9.29-3.58-18.69,65-82.31-25.28,9.2-33.83-4.68-1.06-1.17,4.79s-5.31-1.51-5.83-6.32c0-.06-.08-.1-.12-.05-.63.73-3.99,4.34-7.64,3.25l1.2-4.7-7.22-1.36"/>
      <path class="cls-13" d="M1360.75,677.42c.12.04.25.09.38.13"/>
      <path class="cls-13" d="M1361.13,677.55c-.13-.04-.26-.09-.38-.13h-.01c-.12-.04-.23-.08-.34-.12h-.01c-.11-.04-.21-.07-.31-.11-.11-.04-.21-.07-.31-.1-.09-.03-.17-.06-.25-.09-.12-.04-.22-.08-.32-.11-.05-.02-.09-.03-.13-.04h-.01s-.08-.03-.11-.05c-.38-.13-.57-.19-.57-.19"/>
      <path class="cls-13" d="M1361.13,677.55c.09.03.17.06.26.09.18.06.36.13.56.19"/>
      <path class="cls-13" d="M1036.67,510.26h19.62l43.89-68.01,73.07,32.17-3.74,4.48,75.81,34.92-3.24,4.99,38.65,18.2,4.99-7.23s6.74,3.61,4.85,10.36c-.03.09.07.16.14.09,1.1-1.12,5.74-5.29,11.82-2.36l-4.68,7.77,16.61,7.16-5.99,11.3,76.58,25.73,3.29,1.1-2.24,6.33,6.79,2.46s-3.8,8.17-9.75,6.79c-.05-.02-.09.05-.04.08,1.25.78,6.38,4.47,3.81,10.77l-7.58-2.04-14.71,50.86,9.38,3.09s-4.86,11.03-12.03,8.57t-.02-.01"/>
      <path class="cls-13" d="M914.62,1714.25c.89,5.98-6.97,6.65-6.97,6.65l-1.01-5.93-3.52.41-31.3,4.73-.15-1.04-5.83-39.19-10.59-71.17-11.58-77.86-15.73-105.76-14.29-96.07"/>
      <path class="cls-13" d="M1178.04,1751.01c1.03,6.76-8.64,11.19-8.64,11.19l-2.49-11.02-48.29,7.55-12.82-76.21-146.67,24.18-24.92,4.11-11.82,1.95v6.78c-6.17.47-7.57-4.42-7.77-5.29,0-.03,0-.05,0-.07-.01-.04-.01-.06-.01-.06"/>
      <path class="cls-13" d="M1177.93,1750.41s0,.04.02.1c.01.04.02.09.02.13.03.11.05.22.06.33"/>
      <path class="cls-13" d="M1178.03,1750.97c-.03-.13-.05-.25-.06-.33"/>
      <path class="cls-13" d="M1178.03,1750.97s.01.03.01.04"/>
      <path class="cls-13" d="M1522.52,1567.07l17.74.73,1.49-200.71.64-85.79,122.23,1.1.05-12.2.22-54.14.2-48.02.05-11.77-39.68-.77-32.63-.64-32.36-.63-55.19-1.08-.43,62.26-.38,54.13-.67,97.27-1.39,199.44,20.11.82-.41,17.64,13.03-.18c-.07,5.65-5.06,8.07-6.56,8.68-.1.04-.06.16.04.17,6.65.32,6.72,7.52,6.72,7.52l-8.28-.09-.12,6.79-79.13,11.96.71,4.77,12.07,80.86-83.34,12.93-164.37,25.51-26.42,4.1,2.2,11.79c-8.06.65-10.17-6.38-10.62-8.51"/>
      <path class="cls-13" d="M2236.07,1133.39l-55.76-.86-65.2-1.01-57.13-.89-22.72-.35-102.7-1.59-89.43-1.39,3.27-221.75h104.26v12.7h8.84c.16,7.23-8.36,7.71-8.36,7.71,5.79.32,8.52,8.36,8.52,8.36h-9.96l-.11,56.31,110.55.75,55.07.38,90.64.62.21-11.21c8.2,1.04,9.66,11.09,9.66,11.09h20.5v173.73h-8.32v6.66c-6.29-.18-6.84-6.66-6.84-6.66.37,5.55-7.4,6.85-7.4,6.85v-6.85l-4.39-.08-.04,38.78-.03,37.29h-100.49v9.54l-86.55-.6v-6.56h-15.66l.55,15.3,10.05.84c0,7.7-10.22,7.2-10.22,7.2,7.87,0,10.22,10.05,10.22,10.05h-10.89v9.17l-313.59-4.57,1.01-52.81,1.18-61.36.22-11.35,99.11,1.75,20.29.36,36.25.64,39.02.69,18.74.33,98.39,1.74,25.83.46,27.48.49,47.75.84,25.86.46,27.67.49,18.57.33,28.62.5"/>
      <polyline class="cls-13" points="1506.2 867.27 1367.74 865.61 1334.52 865.21 1332.49 864.45"/>
      <path class="cls-13" d="M1345.38,899.54s5.81-12.27-4.07-17.21-9.3-17.73-9.3-17.73l.07-.26,10.24-35.58,8.93-31.03,14.46-50.28,7.16-24.87,7.09-24.64,6.72-23.36,34.98-121.58h60.07v-10.39s9.37,1.87,9.74,8.99c0,0,.94-8.43,8.81-8.99v9.74l8.34.07,16.01.12v-61.71h83.15v-17.24h16.36v-5.71s7.82-.15,8.37,5.54c.01.07.1.1.14.03.56-1.18,3.31-6.14,9.57-5.57v6.3h20.83v-6.34s8.67.66,9.03,5.39c0,.04.05.06.06,0,.27-1.16,1.72-5.44,8.83-5.4v6.57l19.7.25v-6.82s8.13,1.34,8.72,5.7c.02.09.12.11.15.03.4-1.25,2.16-4.87,8.98-5.14v6.14l19.97.09v-6.79s8.79,1.51,9.63,6.08c.01.07.1.07.11.01.29-1.38,1.77-5.87,8.87-6.12v7.41l16-.09v16.56h94.18v-6.13s7.97,1.11,8.46,5.77c.01.07.09.09.12.02.41-1.25,2.27-5.77,7.69-5.87v6.88l82.17-.07v13.53h7.73s-.21,8.09-5.73,8.36c-.05,0-.06.07-.02.08,1.14.33,5.54,2.01,5.75,8.1l-7.91-.15-2.37,255.46h0s-.94,101.46-.94,101.46l-29.3-.32-73.95-.79-352.41-3.81-.37-6.95"/>
      <path class="cls-13" d="M837.87,1325.24l1.86-.32h0l6.24-1.07,6.46-1.11,6.55-1.12,6.17-1.06,18.44-3.16v-58.93h-77.56l-.14-23.02h-5.43l-.21,11.5s-9.37-3.15-9.51-12.6c0,0-2.06,11.61-10.81,11.82l.14-12.27-4.64-.09h-.18"/>
      <path class="cls-13" d="M754.4,1314.54h-.19c-.79,0-3.87.21-6.21,2.4-.11.09-.23.21-.34.34-1.25,1.3-2.22,3.24-2.4,6.11h10.23l.16,14.7h0l57.99-9.07-1.44-10.16h.01c.34.03,6.45.61,9.75,3.98.81.83,1.45,1.83,1.8,3.03.05.2.1.41.14.62,0,0,0-.03,0-.08h0c-.09-.71-.5-5.26,2.57-8.18,1.04-1,2.47-1.8,4.43-2.21l2.09,10.06h.01l4.48-.77"/>
      <path class="cls-13" d="M746.47,1279.15h11.14v2.78h-11.4s1.27,7.8,8.54,7.73c0,0-8.15,1.54-8.28,10.2h10.88v6.47h-11.14s.49,8.21,8,8.21"/>
      <polyline class="cls-13" points="805.9 1235.45 805.9 1193.36 839.35 1176.12 839.35 1144.75 949.13 1146.4 996.14 1147.1 1090.2 1148.51 1184.77 1149.93 1229.51 1150.6 1323.78 1152.01 1323.78 1192.41 1323.78 1265.48 1229.5 1263.98 1182.96 1263.24 1090.2 1261.76 994.34 1260.23 947.33 1259.48 883.6 1258.47"/>
      <polyline class="cls-13" points="1399.65 1191.97 1399.65 1172.35 1399.65 1152.21 1391.18 1152.19 1383.23 1152.18 1376.11 1152.16 1368.98 1152.15 1361.84 1152.13 1354.71 1152.12 1346.4 1152.1 1346.23 1172.35 1346.22 1173.34"/>
      <path class="cls-13" d="M1375.91,1529.25v-.05c-.08-.59-.86-6.66,2.57-10.06.89-.88,2.06-1.59,3.61-1.97h.01l2,9.72,13.62-2.4h.01v-2.38l.18-28.94.37-63.53.67-114.62.22-38.79.48-82.99v-1.27"/>
      <path class="cls-13" d="M1399.65,1152.21h78.91l-.38,124.26-.12,38.79-.36,114.62-.19,63.54-.09,28.94-.13,42.15h-27.45l-1.95,27.25-38.72,6.05-30.77,4.81-42.88,6.69-139.91,25.18-4.14-23.12-94.89,15.54,3.51,23.29-133.53,21.58-71.25,11.52-1.24-7.69-11.59-71.69-17.35-107.47-11.53-71.36-16.12-99.78.39-.07,1.86-.31,12.72-2.15,12.72-2.15,93.54-15.79,15.49,100.77,10.98,71.45,16.71,108.74,321.89-51.62-3.54-25.57,40.49-6.75,4.83,28.76,2.54-.37-1.73-9.9s7.88.82,9.53,8.85"/>
      <path class="cls-13" d="M1337.55,1192.92v-.02c0-.46.09-9.18,7.25-9.58v9.6l54.84.32"/>
      <path class="cls-13" d="M1323.78,1192.41h6.42v-9.09s7.34,2.04,7.35,9.58"/>
      <path class="cls-13" d="M925.53,1791.29s.01.02.01.05c.58,1.4,3.6,7.86,9.01,7.43l-1-8.31,12.42-2.13,26.38-4.52,146.27-25.08"/>
      <path class="cls-13" d="M713.6,1443.71l17.18,105.53,12.4,76.14,18.18,111.66,16.48,101.24,139.49-22.69-3.32-22.97,3.41-.42.92,8.9s7.49-4.1,7.2-9.76"/>
      <polyline class="cls-13" points="755.65 1338.09 697.87 1347.13 713.59 1443.71"/>
      <polyline class="cls-13" points="1212.88 1743.63 1201 1667.09 1363.58 1639 1448.52 1624.33 1448.53 1624.33"/>
      <path class="cls-13" d="M1932.93,878.84l-.04,4.35h9.9s-2.26,8.55-9.03,8.19c0,0,8.91,1.27,9.03,7.72l-10.23-.08v6.45"/>
      <path class="cls-13" d="M1388.08,567.53s-.06-.02-.09-.04c-.94-.45-9.36-4.68-7.14-11.18l13.38,3.98,2.13-7.54,27.35.25"/>
      <path class="cls-13" d="M1385.05,589.83l4.66-11.27-14.47-5.25s6.09-8.42,12.75-5.82"/>
      <path class="cls-13" d="M1665.14,1168.04l6.49.03v-10.44s8.61,2.66,8.39,8.92c0,0,.96-8.49,9.03-8.49v10.01l5.76.11"/>
      <path class="cls-13" d="M980.23,493.31h0l9.57,3.46,2.93-8.54s8.43,4.6,6.38,11.17c0,.03.02.05.03.03.63-.93,4.92-6.81,10.69-4.4l-2.85,8,4.19,1.42,3.01-8.11s7.62,5.18,5.76,10.56c0,.05.03.09.06.05.83-.94,5.26-5.62,11.07-4.41l-2.8,8.17,7.45,2.08"/>
      <polyline class="cls-13" points="839.73 1324.93 839.73 1324.92 836.39 1305.16 836.4 1305.16 842.66 1304.2 849.14 1303.22 855.7 1302.22 861.9 1301.27 861.91 1301.27 861.91 1298.45 861.91 1291.7 861.91 1284.96 861.91 1278.59 861.91 1271.63 861.91 1264.67 861.91 1258.47"/>
      <polyline class="cls-13" points="845.91 1323.42 842.66 1304.2 842.61 1303.9"/>
      <polyline class="cls-13" points="852.45 1322.8 852.45 1322.78 852.44 1322.74 849.15 1303.27"/>
      <polyline class="cls-13" points="858.98 1321.59 855.7 1302.22 855.68 1302.07"/>
      <polyline class="cls-13" points="865.19 1320.74 865.17 1320.63 865.16 1320.56 861.9 1301.27 861.89 1301.22"/>
      <line class="cls-13" x1="861.91" y1="1298.45" x2="883.6" y2="1298.45"/>
      <polyline class="cls-13" points="861.28 1291.7 861.91 1291.7 882.97 1291.7"/>
      <line class="cls-13" x1="861.91" y1="1284.96" x2="883.6" y2="1284.96"/>
      <polyline class="cls-13" points="862.6 1278.59 883.6 1278.59 884.29 1278.59"/>
      <polyline class="cls-13" points="862.22 1271.63 883.6 1271.63 883.91 1271.63"/>
      <polyline class="cls-13" points="862.6 1264.67 883.6 1264.67 884.29 1264.67"/>
      <line class="cls-13" x1="903.12" y1="1715.38" x2="914.01" y2="1792.62"/>
      <polyline class="cls-13" points="934.21 1710.81 935.89 1721.92 936.89 1728.51 937.88 1734.99 938.75 1740.72 939.65 1746.67 940.55 1752.59 941.42 1758.32 942.45 1765.1 943.63 1772.89 945.97 1788.33"/>
      <polyline class="cls-13" points="1368.1 1530.25 1368.99 1536.48 1369.91 1542.99 1370.83 1549.43 1371.76 1555.95 1372.68 1562.44 1373.59 1568.79 1374.52 1575.33 1375.47 1582.05 1376.37 1588.34 1377.32 1595.04 1378.4 1602.62"/>
      <line class="cls-13" x1="1409.17" y1="1597.81" x2="1397.72" y2="1524.49"/>
      <polyline class="cls-13" points="1377.32 1595.04 1396.78 1591.64 1395.68 1584.65 1394.69 1578.39 1393.63 1571.69 1392.6 1565.15 1391.59 1558.81 1390.57 1552.34 1389.55 1545.83 1388.53 1539.42 1387.52 1533 1368.99 1536.48 1368.98 1536.48"/>
      <polyline class="cls-13" points="935.89 1721.92 914.01 1725.24 914.99 1731.83 915.01 1731.97 915.95 1738.31 916.8 1744.05 917.68 1750 918.55 1755.93 919.4 1761.66 920.41 1768.46 921.6 1776.52 943.61 1772.89"/>
      <line class="cls-13" x1="936.89" y1="1728.51" x2="915.01" y2="1731.83"/>
      <polyline class="cls-13" points="938.26 1734.93 937.88 1734.99 916.38 1738.25"/>
      <polyline class="cls-13" points="938.26 1740.79 916.8 1744.05 916.38 1744.11"/>
      <polyline class="cls-13" points="939.75 1746.65 939.65 1746.67 917.87 1749.97"/>
      <polyline class="cls-13" points="941.1 1752.51 940.55 1752.59 919.22 1755.83"/>
      <polyline class="cls-13" points="941.1 1758.37 919.4 1761.66 919.22 1761.69"/>
      <polyline class="cls-13" points="941.82 1765.2 920.41 1768.46 919.94 1768.53"/>
      <polyline class="cls-13" points="1346.23 1172.35 1354.45 1172.35 1361.59 1172.35 1368.73 1172.35 1375.85 1172.35 1382.98 1172.35 1390.92 1172.35 1399.65 1172.35"/>
      <line class="cls-13" x1="1354.71" y1="1152.12" x2="1354.45" y2="1172.04"/>
      <line class="cls-13" x1="1361.84" y1="1152.43" x2="1361.59" y2="1172.35"/>
      <polyline class="cls-13" points="1368.98 1153.15 1368.73 1172.35 1368.72 1173.07"/>
      <polyline class="cls-13" points="1376.11 1152.12 1376.11 1152.16 1375.85 1172.04"/>
      <polyline class="cls-13" points="1383.24 1151.6 1383.23 1152.18 1382.98 1171.52"/>
      <line class="cls-13" x1="1391.18" y1="1152.43" x2="1390.92" y2="1172.35"/>
      <polyline class="cls-13" points="1370.08 1542.97 1388.53 1539.42 1388.83 1539.36"/>
      <polyline class="cls-13" points="1370.71 1549.45 1370.83 1549.43 1389.46 1545.84"/>
      <polyline class="cls-13" points="1371.86 1555.94 1390.57 1552.34 1390.61 1552.33"/>
      <line class="cls-13" x1="1372.84" y1="1562.42" x2="1391.59" y2="1558.81"/>
      <polyline class="cls-13" points="1373.96 1568.74 1392.6 1565.15 1392.71 1565.13"/>
      <polyline class="cls-13" points="1375.36 1575.21 1393.63 1571.69 1394.11 1571.6"/>
      <polyline class="cls-13" points="1376.07 1581.97 1394.69 1578.39 1394.82 1578.36"/>
      <polyline class="cls-13" points="1376.94 1588.26 1395.68 1584.65 1395.69 1584.65"/>
      <polyline class="cls-13" points="1484.09 1123.53 1769.78 1126.69 1824.55 1127.3 1825.07 1067.47 1825.86 975.82 1826.48 904.49 1772.24 904.19 1749.74 904.07 1509.34 902.73 1484.09 902.6 1353.04 901.87 1352.19 1122.06"/>
      <path class="cls-13" d="M1099,1112.76l209.34,4.04v9.92s7.78-2,7.93-10.22c0,0,1.03,9.78,7.25,9.78v-10l11.31.05v5.54l17.36.19,131.9,1.46"/>
      <path class="cls-13" d="M1042.28,553.67v.02s0,.02-.02.04c-.15.29-.88,1.58-2.17,2.83-1.98,1.91-5.27,3.73-9.89,1.78l3.18-7.85h-.01l-10.39-3.61,10.39-27.77,2.37-6.32.94-2.53,10.37-27.7h-.01l-8.18-2.83,3.59-9.72h0c-.31-.05-6.37-.94-10.37,2.98l-.32.32c-.62.68-1.19,1.49-1.67,2.45h-.01s-.12,0-.15-.04v-.03c.07-.59.27-2.25-.06-4.24-.2-1.26-.63-2.65-1.44-4-.26-.45-.58-.89-.94-1.33-.18-.22-.37-.43-.58-.64-.52-.54-1.11-1.04-1.8-1.5-.13-.1-.27-.19-.41-.28h0s-3.74,9.59-3.74,9.59h0l-3.96-1.49,3.39-9.37h0c-.3-.05-5.59-.76-9.66,3.21-.12.11-.24.23-.35.35-.69.74-1.34,1.62-1.92,2.67h-.01s-.04.03-.06.02c-.01-.01-.01-.02-.01-.04.22-1.33.99-7.5-2.71-11.03-.56-.54-1.22-1.01-1.99-1.4l-4.03,9.56h0l-10.3-3.82-9.07,31.36-5.85,20.24h-26.16"/>
      <path class="cls-13" d="M1353.04,901.87l-7.66-2.33-28.77-8.75s4.76-10.7-5.09-15.46l-3.91,12.57-114.97-35.66,16.54-57.84-44.6-9.74v7.65l-79.9-15.86v9.63l-81.59-15.58v-86.93l-15.7-4.83,9.42-31.42,10.15,1.69,1.83-8.6s8,2.28,6.86,9.27c0,0,1.9-7.37,10.03-5.72l-1.65,7.88,5.34,1.27,6.97-27.07-17.19-4.03-2.12,9.13s-8.49-2.34-6.16-12.74l-5.73-1.7,12.74-41.21,29.92,10.02,9.34-26.96-5.73-2.12-3.4,8.49s-8.45-2.11-5.75-11.19c0,0,.01-.03.01-.04"/>
      <path class="cls-13" d="M904.45,682.39l11.07.06s-2.01,8.14-11.07,8.67c0,0,11.2,1.2,11.07,8.61h-11.07"/>
      <path class="cls-13" d="M904.1,742.83l58.19.34v-9s8.14,2.59,8.32,9.7c0,0,1.38-9.53,9.36-9.7v9.7h23.12"/>
      <polyline class="cls-12" points="811.93 325.06 807.95 531.82 826.46 531.82 825.55 567.14"/>
      <polyline class="cls-12" points="591.12 497.03 735.25 498.37 735.25 565.15"/>
      <line class="cls-12" x1="904.1" y1="724.72" x2="807.27" y2="724.78"/>
      <path class="cls-12" d="M807.27,692.52l76.29,1.19v14.2s5.92,9.47,12.78,8.29v-11.79l7.98.05"/>
      <path class="cls-12" d="M807.23,684.47h.02l76.31,1.19v-12.79s5.04-10.42,13.02-9.23v12.31l7.91.05"/>
      <polyline class="cls-12" points="725.08 610.62 725.08 634.88 741.84 634.88 741.84 650.04 775.13 650.23 775.14 650.23"/>
      <polyline class="cls-12" points="690.32 650.23 725.08 650.23 723.83 785.89 687.8 785.22"/>
      <line class="cls-12" x1="687.69" y1="791.17" x2="774.32" y2="791.67"/>
      <line class="cls-12" x1="687.69" y1="819.28" x2="774.16" y2="819.78"/>
      <polyline class="cls-12" points="807.23 761.72 807.29 761.72 903.98 762.29"/>
      <polyline class="cls-12" points="807.23 785.89 807.31 785.89 850.21 786.14 851.99 786.15 903.84 786.46"/>
      <line class="cls-12" x1="807.35" y1="819.78" x2="850.21" y2="819.78"/>
      <polyline class="cls-12" points="850.21 786.17 850.21 819.78 850.21 851.5 807.35 851.5"/>
      <polyline class="cls-12" points="894.31 858.06 865.09 857.76 865.09 890.92 893.4 890.9"/>
      <polyline class="cls-12" points="865.09 891.43 865.09 898.72 860.64 898.72 860.64 932.78 860.64 983.81 860.64 1023.01 852.29 1031.54 852.29 1074.82 840.86 1076.2"/>
      <polyline class="cls-12" points="807.35 876.12 807.36 876.12 847.56 876.09"/>
      <polyline class="cls-12" points="807.41 968.33 807.42 968.33 845.7 968.33 845.7 997.12 807.43 997.14"/>
      <polyline class="cls-12" points="807.23 1024.16 807.45 1024.16 840.86 1024.16"/>
      <polyline class="cls-12" points="647.92 938.64 647.31 1092.66 728 1092.81 768.25 1092.88"/>
      <polyline class="cls-12" points="621.34 1229.51 621.34 1162.7 646.37 1162.7 646.37 1187.18 740.95 1188.1 740.95 1160.89 766.41 1161.32"/>
      <line class="cls-12" x1="839.35" y1="1176.12" x2="839.35" y2="1258.47"/>
      <polyline class="cls-12" points="949.13 1146.4 948.49 1186.35 948.06 1213.55 947.33 1259.48 947.33 1259.49"/>
      <polyline class="cls-12" points="996.14 1147.1 995.5 1187.1 995.07 1214.29 994.34 1260.23 994.34 1260.24"/>
      <line class="cls-12" x1="1090.2" y1="1148.51" x2="1090.2" y2="1261.76"/>
      <polyline class="cls-12" points="1184.77 1149.93 1183.7 1216.85 1183.24 1245.83 1182.96 1263.24"/>
      <polyline class="cls-12" points="1229.51 1150.6 1229.51 1217.58 1229.51 1246.56 1229.51 1263.24"/>
      <polyline class="cls-12" points="827.95 1425.09 827.94 1425.09 713.6 1443.71 713.59 1443.71"/>
      <polyline class="cls-12" points="843.68 1530.85 843.67 1530.85 730.78 1549.24"/>
      <polyline class="cls-12" points="855.26 1608.71 855.25 1608.71 743.18 1625.38"/>
      <line class="cls-12" x1="871.67" y1="1719.07" x2="761.36" y2="1737.04"/>
      <polyline class="cls-12" points="882.48 1603.92 955.36 1592.86 1001.89 1585.8"/>
      <line class="cls-12" x1="865.13" y1="1496.45" x2="985.18" y2="1477.06"/>
      <line class="cls-12" x1="853.6" y1="1425.09" x2="974.2" y2="1405.61"/>
      <polyline class="cls-12" points="1323.78 1534.18 1335.52 1609.31 1335.52 1609.32"/>
      <line class="cls-12" x1="1397.73" y1="1522.11" x2="1477.42" y2="1522.36"/>
      <polyline class="cls-12" points="1397.9 1493.17 1397.91 1493.17 1477.51 1493.42"/>
      <polyline class="cls-12" points="1398.27 1429.64 1398.28 1429.64 1477.7 1429.88"/>
      <polyline class="cls-12" points="1398.93 1315.02 1398.94 1315.02 1398.95 1315.02 1428.1 1315.11 1454.06 1315.19 1478.06 1315.26"/>
      <polyline class="cls-12" points="1399.16 1276.23 1399.17 1276.23 1426.37 1276.31 1428.22 1276.32 1454.18 1276.4 1478.18 1276.47"/>
      <polyline class="cls-12" points="2006.82 1162.91 2006.66 1203.63 2006.54 1233.65 2006.5 1244.36"/>
      <polyline class="cls-12" points="1694.31 1229.55 1814.14 1231.13 1850.4 1231.6 1888.76 1232.11 2006.05 1233.65"/>
      <line class="cls-12" x1="1850.68" y1="1159.58" x2="1850.4" y2="1231.37"/>
      <polyline class="cls-12" points="1814.42 1159.58 1814.14 1231.13 1814.14 1231.22"/>
      <line class="cls-12" x1="1794.14" y1="1158.58" x2="1794.14" y2="1185.7"/>
      <line class="cls-12" x1="1889.7" y1="1160.27" x2="1888.76" y2="1232.1"/>
      <line class="cls-12" x1="1908.44" y1="1160.6" x2="1907.99" y2="1185.7"/>
      <polyline class="cls-12" points="2035.26 1130.28 2035.26 1059.66 1932.56 1059.66"/>
      <line class="cls-12" x1="2115.21" y1="991.76" x2="2115.11" y2="1131.52"/>
      <line class="cls-12" x1="2060.14" y1="991.76" x2="2057.98" y2="1130.63"/>
      <polyline class="cls-12" points="1858.98 878.04 1860.07 777.27 1862.49 552.75 1767.77 552.69 1607.75 552.59 1524.63 552.54"/>
      <line class="cls-12" x1="1607.78" y1="490.83" x2="1607.75" y2="552.59"/>
      <polyline class="cls-12" points="1767.77 552.69 1767.77 513.45 1862.51 513.45 1862.49 552.75"/>
      <line class="cls-12" x1="1351.25" y1="797.73" x2="1383.74" y2="808.66"/>
      <line class="cls-12" x1="1365.71" y1="747.45" x2="1397.64" y2="759.17"/>
      <line class="cls-12" x1="1372.87" y1="722.58" x2="1404.65" y2="734.22"/>
      <polyline class="cls-12" points="1473.5 632.95 1473.5 632.96 1473.5 651.64 1473.5 679.81 1507.64 680.07"/>
      <polyline class="cls-12" points="1419.65 678.92 1457.29 679.15 1457.29 651.64 1473.5 651.64"/>
      <line class="cls-12" x1="1308.47" y1="564.1" x2="1234.64" y2="799.85"/>
      <line class="cls-12" x1="1057.14" y1="558.55" x2="1122.67" y2="587.03"/>
      <polyline class="cls-12" points="1033.36 519.11 1033.37 519.11 1132.97 563.16"/>
      <line class="cls-12" x1="1030.76" y1="650.6" x2="1099.8" y2="666.87"/>
      <line class="cls-12" x1="1003.09" y1="683.57" x2="1095.26" y2="698.9"/>
      <polyline class="cls-12" points="728.14 1016.77 728.14 1016.8 728 1092.77"/>
      <polyline class="cls-12" points="948.49 1186.35 995.5 1187.1 995.51 1187.1"/>
      <line class="cls-12" x1="948.23" y1="1213.55" x2="995.07" y2="1214.29"/>
      <line class="cls-12" x1="1183.7" y1="1216.85" x2="1229.51" y2="1217.58"/>
      <line class="cls-12" x1="1183.24" y1="1245.83" x2="1229.51" y2="1246.56"/>
      <line class="cls-12" x1="860.64" y1="932.78" x2="902.57" y2="933.23"/>
      <line class="cls-12" x1="860.64" y1="983.81" x2="902.02" y2="984.26"/>
      <line class="cls-12" x1="860.64" y1="1023.01" x2="901.6" y2="1023.45"/>
      <line class="cls-12" x1="901.03" y1="1076.15" x2="900.37" y2="1108.69"/>
      <line class="cls-12" x1="948.24" y1="1077.32" x2="948.24" y2="1109.67"/>
      <polyline class="cls-12" points="1000.83 1078.62 1000.17 1110.73 1000.17 1110.74"/>
      <polyline class="cls-12" points="1019.5 1111.13 1019.5 1078.62 1078.69 1079.71 1078.02 1112.33"/>
      <line class="cls-12" x1="955.36" y1="1592.86" x2="966.56" y2="1671.78"/>
      <line class="cls-12" x1="1428.1" y1="1315.11" x2="1428.22" y2="1276.32"/>
      <line class="cls-12" x1="1454.18" y1="1276.47" x2="1454.06" y2="1315.19"/>
      <line class="cls-12" x1="959.13" y1="1706.71" x2="972.35" y2="1783.81"/>
      <line class="cls-12" x1="1363.58" y1="1639" x2="1377.25" y2="1718.12"/>
      <polyline class="cls-12" points="1503.79 1366.81 1503.8 1366.81 1541.75 1367.09"/>
      <polyline class="cls-12" points="1504.47 1269.54 1545.31 1269.71 1606.7 1269.96 1664.67 1270.2"/>
      <polyline class="cls-12" points="1504.47 1215.41 1504.85 1215.41 1545.31 1215.58 1560.22 1215.64 1575.28 1215.7 1592.58 1215.77 1606.92 1215.83 1625.21 1215.9 1664.89 1216.06"/>
      <polyline class="cls-12" points="1606.7 1269.96 1606.8 1245.81 1606.92 1215.83 1606.92 1215.82"/>
      <polyline class="cls-12" points="1545.31 1269.54 1545.41 1245.81 1575.28 1245.81 1606.8 1245.81"/>
      <line class="cls-12" x1="1545.31" y1="1216.06" x2="1545.41" y2="1245.81"/>
      <line class="cls-12" x1="1575.28" y1="1215.7" x2="1575.28" y2="1245.81"/>
      <line class="cls-12" x1="1560.47" y1="1154.23" x2="1560.22" y2="1215.63"/>
      <line class="cls-12" x1="1625.46" y1="1155.5" x2="1625.21" y2="1215.9"/>
      <line class="cls-12" x1="1592.83" y1="1154.86" x2="1592.58" y2="1215.77"/>
      <polyline class="cls-12" points="2107.89 1164.13 2108.32 1204.6 2108.71 1241.98"/>
      <polyline class="cls-12" points="2006.82 1203.63 2032.66 1203.88 2060.14 1204.14 2107.89 1204.6 2108.32 1204.6 2133.72 1204.62 2161.38 1204.65 2209.23 1204.69"/>
      <polyline class="cls-12" points="2133.75 1164.59 2133.72 1204.62 2133.72 1204.63"/>
      <line class="cls-12" x1="2161.42" y1="1165.08" x2="2161.38" y2="1204.65"/>
      <polyline class="cls-12" points="2032.66 1162.91 2032.66 1203.88 2032.66 1204.16"/>
      <polyline class="cls-12" points="2060.14 1163.29 2060.14 1204.14 2060.14 1204.16"/>
      <polyline class="cls-12" points="1484.09 901.87 1484.09 902.6 1484.09 1123.52 1484.09 1123.53"/>
      <polyline class="cls-12" points="1772.23 905.55 1771.45 975.8 1770.44 1067 1769.78 1126.69"/>
      <polyline class="cls-12" points="1771.45 975.8 1800.29 975.81 1825.86 975.82"/>
      <polyline class="cls-12" points="1771 1067.01 1799.5 1067.25 1825.07 1067.47"/>
      <line class="cls-12" x1="1800.29" y1="975.82" x2="1799.5" y2="1067.25"/>
      <polyline class="cls-12" points="1509.34 902.74 1509.34 931.26 1749.58 932.8 1749.74 904.07"/>
      <polyline class="cls-12" points="1949.59 990.63 1932.56 990.63 1932.56 1059.66 1932.56 1128.69"/>
      <polyline class="cls-12" points="1860.07 777.27 1898.04 777.68 1898.04 847.63"/>
      <polyline class="cls-12" points="1915.9 847.63 1915.9 777.27 1963.17 777.7"/>
      <polyline class="cls-12" points="1506.2 867.28 1506.2 867.27 1507.64 680.07 1508 633.22 1508.62 552.42"/>
      <polyline class="cls-12" points="1508 633.22 1473.5 632.96 1432.46 632.64 1427.2 651.64 1419.65 678.92 1418.33 683.69 1386.68 674.58"/>
      <polyline class="cls-12" points="1379.96 697.94 1411.5 709.85 1404.65 734.22 1397.65 759.17 1383.74 808.66 1374.8 840.51 1367.74 865.61 1367.74 865.62"/>
      <line class="cls-12" x1="1342.32" y1="828.76" x2="1374.8" y2="840.51"/>
      <polyline class="cls-12" points="1426.88 651.64 1427.2 651.64 1457.29 651.64"/>
      <path class="cls-13" d="M2180.2,1147.11h.18c1.23.04,8.16.64,8.25,8.96h-8.5l-.14,9.34"/>
      <path class="cls-13" d="M2180.31,1132.53l-.11,6.86h8.5s-2.67,7.72-8.32,7.72"/>
      <path class="cls-13" d="M865.84,1679.88l5.03-.75,1.16,6.7s6.43-2.97,6.97-6.87c.04-.26.39-.34.52-.11,1.08,1.81,3.8,5.32,8.35,4.45l-1.19-6.5,7.38-1.19"/>
    </g>
  </g>
  <text class="cls-3" transform="translate(1580.83 1026.84)"><tspan x="0" y="0">Small Gym</tspan></text>
  <text class="cls-3" transform="translate(1639.15 722.58)"><tspan x="0" y="0">La</tspan></text>
  <text class="cls-8" transform="translate(1658.43 722.58)"><tspan x="0" y="0">r</tspan></text>
  <text class="cls-5" transform="translate(1664.87 722.58)"><tspan x="0" y="0">g</tspan></text>
  <text class="cls-3" transform="translate(1674.56 722.58)"><tspan x="0" y="0">e Gym</tspan></text>
  <text class="cls-3" transform="translate(548.25 1108.69)"><tspan x="0" y="0">Library</tspan></text>
  <text class="cls-4" transform="translate(1148.18 645.92)"><tspan x="0" y="0">P</tspan></text>
  <text class="cls-7" transform="translate(1157.04 645.92)"><tspan x="0" y="0">A</tspan></text>
  <text class="cls-3" transform="translate(1168.27 645.92)"><tspan x="0" y="0">C</tspan></text>
  <g id="Layer_22" data-name="Layer 22">
    <g class="cls-2">
      <text class="cls-3" transform="translate(592.47 905.1)"><tspan x="0" y="0">Main Entrance</tspan></text>
    </g>
    <g class="cls-2">
      <text class="cls-3" transform="translate(663.19 419.04)"><tspan x="0" y="0">Ca</tspan></text>
      <text class="cls-6" transform="translate(685.89 419.04)"><tspan x="0" y="0">f</tspan></text>
      <text class="cls-5" transform="translate(691.65 419.04)"><tspan x="0" y="0">e</tspan></text>
      <text class="cls-8" transform="translate(701.57 419.04)"><tspan x="0" y="0">t</tspan></text>
      <text class="cls-3" transform="translate(708.37 419.04)"><tspan x="0" y="0">eria</tspan></text>
    </g>
  </g>
</svg>